<?xml version="1.0" encoding="UTF-8" standalone="no"?>
<svg
   width="64"
   height="64"
   viewBox="0 0 64 64"
   fill="none"
   version="1.1"
   id="svg32"
   sodipodi:docname="application-x-addon.svg"
   inkscape:version="1.1.2 (0a00cf5339, 2022-02-04)"
   xmlns:inkscape="http://www.inkscape.org/namespaces/inkscape"
   xmlns:sodipodi="http://sodipodi.sourceforge.net/DTD/sodipodi-0.dtd"
   xmlns="http://www.w3.org/2000/svg"
   xmlns:svg="http://www.w3.org/2000/svg">
  <sodipodi:namedview
     id="namedview34"
     pagecolor="#ffffff"
     bordercolor="#666666"
     borderopacity="1.0"
     inkscape:pageshadow="2"
     inkscape:pageopacity="0.0"
     inkscape:pagecheckerboard="0"
     showgrid="false"
     inkscape:zoom="9.96875"
     inkscape:cx="31.949843"
     inkscape:cy="32"
     inkscape:current-layer="svg32" />
  <path
     d="M 3.5133449,6.3335707 C 3.3460617,4.8068182 4.7780425,3.3524361 6.3152044,3.5120325 c 6.0690966,0.00363 12.1418106,0.00363 18.2107496,0 1.366419,-0.1305214 2.852799,1.0481211 2.751076,2.4697941 -0.0072,3.876771 0.0037,7.7571744 -0.0072,11.6339454 0.127193,0.884891 -0.661433,1.472395 -1.337333,1.860484 -1.242999,0.529512 -2.787395,-0.569333 -2.740228,-1.903937 -0.01088,-3.303805 -0.01823,-6.607609 0.01088,-9.9114113 -5.18582,-0.014535 -10.3718,-0.010878 -15.557778,0 C 7.66723,12.828671 7.67084,18.000225 7.641661,23.17178 c 3.299783,0.03255 6.603339,-0.02907 9.903121,0.02544 1.311863,-0.01453 2.387578,1.512216 1.853336,2.730679 -0.381578,0.634752 -0.926667,1.403502 -1.769851,1.316592 -3.888421,0.02892 -7.7770027,0.0071 -11.665583,0.0071 -1.4209939,0.101625 -2.5801933,-1.396206 -2.4457688,-2.74519 0.010879,-6.060082 0.010879,-12.116369 -0.00367,-18.1728161 z"
     fill="url(#paint1_linear)"
     id="path2"
     style="fill:url(#paint1_linear);stroke-width:1.57619" />
  <path
     d="m 38.282907,3.6706807 c 0.516792,-0.1997325 1.088294,-0.1488513 1.63071,-0.1706575 6.086708,0.029076 12.169953,-0.014537 18.253042,0.025441 1.277588,-0.00363 2.36604,1.1835411 2.318715,2.4434053 0.01447,6.2991595 0.02547,12.5984775 -0.0037,18.8976355 0.01808,1.390543 -1.339691,2.537898 -2.712085,2.378146 -6.18497,-0.0037 -12.369938,0.01816 -18.554906,-0.0072 -1.292369,0.06889 -2.482542,-1.081936 -2.471852,-2.370876 -0.03285,-6.186652 0,-12.373303 -0.01447,-18.5599557 -0.105506,-1.1001095 0.502169,-2.2292927 1.554457,-2.6358685 z m 2.573731,3.9537242 c 0.01808,5.1701331 -0.01808,10.3402671 0.01808,15.5102421 5.162238,-0.0037 10.327779,0.0072 15.493318,-0.0037 0.0038,-5.169977 0.0038,-10.34011 0.0038,-15.510243 -5.173087,-0.00722 -10.346017,-0.00722 -15.515171,0.0037 z"
     fill="url(#paint2_linear)"
     id="path4"
     style="fill:url(#paint2_linear);stroke-width:1.57619" />
  <path
     d="m 46.032554,36.801789 c 4.160889,-0.100346 8.329483,-0.05373 12.493988,-0.02513 0.741459,0.691163 1.991535,1.210404 1.947984,2.381621 0.02547,6.309904 0.0073,12.627393 0.011,18.937298 0.14889,1.063923 -0.886892,1.658222 -1.526629,2.335006 -6.893729,0.08944 -13.79516,0.0967 -20.692502,-0.0037 -0.665209,-0.648025 -1.577571,-1.299842 -1.541095,-2.324103 -0.01431,-3.82826 -0.0073,-7.656678 -0.0037,-11.484936 -0.0073,-1.206929 1.246615,-2.231032 2.456599,-1.944548 0.988614,0.05721 1.675519,1.031213 1.671744,1.951659 0.01808,3.248339 0,6.492886 0.0038,9.740909 5.178745,0 10.353563,0.0037 15.532466,-0.0033 0,-5.08907 -0.02201,-10.181618 0.01075,-15.270531 -3.198059,-0.02149 -6.396119,0 -9.594178,-0.0072 -1.377112,0.129098 -2.682056,-1.342823 -2.202215,-2.664155 0.28363,-0.684211 0.959529,-1.077987 1.431981,-1.618876 z"
     fill="url(#paint3_linear)"
     id="path6"
     style="fill:url(#paint3_linear);stroke-width:1.57619" />
  <path
     d="m 4.994538,36.965336 c 0.5315678,-0.224858 1.12524,-0.210479 1.6895106,-0.224858 5.9499224,0.01438 11.8996864,-0.0072 17.8496084,0.01075 1.452893,-0.13779 2.836607,1.099478 2.738185,2.569029 0.011,6.171482 0.0037,12.342965 0.0037,18.510812 0.112882,1.349775 -1.008581,2.666682 -2.392295,2.652304 -6.303044,0.02513 -12.609703,0.01801 -18.9127456,0.0033 -1.4055689,0.04725 -2.5853653,-1.273454 -2.4614737,-2.648511 0,-6.182228 -0.011006,-12.364771 0.00721,-18.546998 C 3.4725297,38.307987 4.0770509,37.342666 4.9946,36.965323 Z m 2.6363035,3.921961 c 0.00722,5.166658 -0.00371,10.336792 0.00722,15.503449 5.1707285,0 10.3412985,0.0033 15.5118695,0 0.02547,-5.155597 -0.04009,-10.31135 0.03285,-15.466946 -5.181577,-0.09434 -10.36677,-0.02181 -15.5519624,-0.0365 z"
     fill="url(#paint4_linear)"
     id="path8"
     style="fill:url(#paint4_linear);stroke-width:1.57619" />
  <defs
     id="defs30">
    <linearGradient
       id="paint1_linear"
       x1="21.5636"
       y1="33.0361"
       x2="21.5636"
       y2="18"
       gradientUnits="userSpaceOnUse"
       gradientTransform="matrix(1.5722233,0,0,1.5801624,-18.511144,-24.9429)">
      <stop
         stop-color="#5558ff"
         id="stop10" />
      <stop
         offset="1"
         stop-color="#00ddff"
         id="stop12" />
    </linearGradient>
    <linearGradient
       id="paint2_linear"
       x1="42.6907"
       y1="33.0361"
       x2="42.6907"
       y2="18"
       gradientUnits="userSpaceOnUse"
       gradientTransform="matrix(1.5722233,0,0,1.5801624,-18.511144,-24.9429)">
      <stop
         stop-color="#5559ff"
         id="stop15" />
      <stop
         offset="1"
         stop-color="#00ddff"
         id="stop17" />
    </linearGradient>
    <linearGradient
       id="paint3_linear"
       x1="42.6908"
       y1="54.0723"
       x2="42.6908"
       y2="39.0361"
       gradientUnits="userSpaceOnUse"
       gradientTransform="matrix(1.5722233,0,0,1.5801624,-18.511144,-24.9429)">
      <stop
         stop-color="#5558ff"
         id="stop20" />
      <stop
         offset="1"
         stop-color="#00ddff"
         id="stop22" />
    </linearGradient>
    <linearGradient
       id="paint4_linear"
       x1="21.5636"
       y1="54.0722"
       x2="21.5636"
       y2="39.0361"
       gradientUnits="userSpaceOnUse"
       gradientTransform="matrix(1.5722233,0,0,1.5801624,-18.511144,-24.9429)">
      <stop
         stop-color="#5558ff"
         id="stop25" />
      <stop
         offset="1"
         stop-color="#00ddff"
         id="stop27" />
    </linearGradient>
  </defs>
</svg>
