<?xml version="1.0" encoding="UTF-8" standalone="no"?>
<svg
   width="64"
   height="64"
   viewBox="0 0 64 64"
   fill="none"
   version="1.1"
   id="svg11"
   sodipodi:docname="application-menu3.svg"
   inkscape:version="1.2.1 (9c6d41e410, 2022-07-14)"
   xmlns:inkscape="http://www.inkscape.org/namespaces/inkscape"
   xmlns:sodipodi="http://sodipodi.sourceforge.net/DTD/sodipodi-0.dtd"
   xmlns:xlink="http://www.w3.org/1999/xlink"
   xmlns="http://www.w3.org/2000/svg"
   xmlns:svg="http://www.w3.org/2000/svg">
  <sodipodi:namedview
     id="namedview13"
     pagecolor="#ffffff"
     bordercolor="#666666"
     borderopacity="1.0"
     inkscape:pageshadow="2"
     inkscape:pageopacity="0.0"
     inkscape:pagecheckerboard="0"
     showgrid="true"
     inkscape:zoom="8"
     inkscape:cx="23.3125"
     inkscape:cy="27.25"
     inkscape:current-layer="svg11"
     inkscape:showpageshadow="2"
     inkscape:deskcolor="#d1d1d1">
    <inkscape:grid
       type="xygrid"
       id="grid830" />
  </sodipodi:namedview>
  <path
     d="m 57.27027,18.416667 c 2.462944,0 4.45946,-2.027103 4.45946,-4.527778 v 0 c 0,-2.500675 -1.996516,-4.5277779 -4.45946,-4.5277779 H 6.72973 c -2.4628879,0 -4.4594595,2.0271029 -4.4594595,4.5277779 v 0 c 0,2.500675 1.9965716,4.527778 4.4594595,4.527778 z m 0,18.111111 c 2.462944,0 4.45946,-2.027103 4.45946,-4.527778 v 0 c 0,-2.500675 -1.996516,-4.527778 -4.45946,-4.527778 H 6.72973 c -2.4628879,0 -4.4594595,2.027103 -4.4594595,4.527778 v 0 c 0,2.500675 1.9965716,4.527778 4.4594595,4.527778 z m 0,18.111111 c 2.462944,0 4.45946,-2.027103 4.45946,-4.527778 v 0 c 0,-2.500675 -1.996516,-4.527778 -4.45946,-4.527778 H 6.72973 c -2.4628879,0 -4.4594595,2.027103 -4.4594595,4.527778 v 0 c 0,2.500675 1.9965716,4.527778 4.4594595,4.527778 z"
     fill="url(#paint0_linear)"
     id="path2"
     style="fill:url(#linearGradient5574);stroke-width:1.10951;fill-opacity:1" />
  <defs
     id="defs9">
    <linearGradient
       id="paint0_linear"
       x1="32.45409"
       y1="12.571473"
       x2="32.45409"
       y2="52.823006"
       gradientUnits="userSpaceOnUse"
       gradientTransform="matrix(1.1011011,0,0,1.1179698,-3.235235,-4.0545269)">
      <stop
         stop-color="#6400ff"
         id="stop4"
         offset="0"
         style="stop-color:#bf00ff;stop-opacity:1;" />
      <stop
         offset="1"
         stop-color="#dd55ff"
         id="stop6"
         style="stop-color:#6033ff;stop-opacity:1;" />
    </linearGradient>
    <linearGradient
       inkscape:collect="always"
       xlink:href="#paint0_linear"
       id="linearGradient5574"
       x1="32.5"
       y1="55"
       x2="32.5"
       y2="10"
       gradientUnits="userSpaceOnUse" />
  </defs>
</svg>
