<?xml version="1.0" encoding="UTF-8" standalone="no"?>
<svg
   width="32"
   height="32"
   viewBox="0 0 32 32"
   fill="none"
   version="1.1"
   id="svg4"
   sodipodi:docname="apps5.svg"
   inkscape:version="1.3 (0e150ed6c4, 2023-07-21)"
   xmlns:inkscape="http://www.inkscape.org/namespaces/inkscape"
   xmlns:sodipodi="http://sodipodi.sourceforge.net/DTD/sodipodi-0.dtd"
   xmlns="http://www.w3.org/2000/svg"
   xmlns:svg="http://www.w3.org/2000/svg">
  <sodipodi:namedview
     id="namedview4"
     pagecolor="#ffffff"
     bordercolor="#666666"
     borderopacity="1.0"
     inkscape:showpageshadow="2"
     inkscape:pageopacity="0.0"
     inkscape:pagecheckerboard="0"
     inkscape:deskcolor="#d1d1d1"
     inkscape:zoom="11.71875"
     inkscape:cx="27.904"
     inkscape:cy="27.989333"
     inkscape:current-layer="svg4" />
  <path
     fill-rule="evenodd"
     clip-rule="evenodd"
     d="m 3.4285714,5.2431793 c 0,-1.0161895 0.8126857,-1.8145466 1.7841143,-1.8145466 H 9.877714 c 0.971429,0 1.784115,0.7983571 1.784115,1.8145466 V 9.948749 c 0,1.015218 -0.813143,1.814547 -1.784115,1.814547 H 5.2126857 c -0.9709714,0 -1.7841143,-0.799329 -1.7841143,-1.814547 z M 5.2126857,0 C 2.3198,0 0,2.361385 0,5.2431793 V 9.948749 c 0,2.879823 2.3193371,5.243179 5.2126857,5.243179 H 9.877714 c 2.893372,0 5.212686,-2.363356 5.212686,-5.243179 V 5.2431793 C 15.0904,2.361385 12.770571,0 9.877714,0 Z M 20.338171,5.2431793 c 0,-1.0161895 0.812686,-1.8145466 1.784115,-1.8145466 h 4.666457 c 0.969543,0 1.782686,0.7978428 1.782686,1.8145466 V 9.948749 c 0,1.015675 -0.8136,1.814547 -1.782686,1.814547 h -4.666457 c -0.970972,0 -1.784115,-0.799329 -1.784115,-1.814547 z M 22.122286,0 C 19.229371,0 16.9096,2.361385 16.9096,5.2431793 V 9.948749 c 0,2.879823 2.319314,5.243179 5.212686,5.243179 h 4.666457 C 29.681143,15.191928 32,12.828115 32,9.948749 V 5.2431793 C 32,2.3618536 29.680686,0 26.788743,0 Z M 5.2126857,20.236704 c -0.9709714,0 -1.7841143,0.797843 -1.7841143,1.815976 v 4.704141 c 0,1.016189 0.8126857,1.814546 1.7841143,1.814546 H 9.877714 c 0.971429,0 1.784115,-0.798357 1.784115,-1.814546 V 22.05268 c 0,-1.018133 -0.813143,-1.815976 -1.784115,-1.815976 z M 0,22.05268 C 0,19.169885 2.3193371,16.808072 5.2126857,16.808072 H 9.877714 c 2.893372,0 5.212686,2.361813 5.212686,5.244608 v 4.704141 C 15.0904,29.638586 12.770571,32 9.877714,32 H 5.2126857 C 2.3198,32 0,29.638586 0,26.756821 Z m 20.338171,0 c 0,-1.018133 0.813143,-1.815976 1.784115,-1.815976 h 4.666457 c 0.969086,0 1.782686,0.797386 1.782686,1.815976 v 4.704141 c 0,1.016646 -0.813143,1.814546 -1.782686,1.814546 h -4.666457 c -0.971429,0 -1.784115,-0.798357 -1.784115,-1.814546 z m 1.784115,-5.244608 c -2.893372,0 -5.212686,2.361813 -5.212686,5.244608 v 4.704141 C 16.9096,29.638586 19.229371,32 22.122286,32 h 4.666457 C 29.680686,32 32,29.638129 32,26.756821 V 22.05268 c 0,-2.882281 -2.318857,-5.244608 -5.211257,-5.244608 z"
     fill="url(#paint0_linear_906_20)"
     id="path1"
     style="fill:url(#paint0_linear_906_20);stroke-width:0.571434" />
  <defs
     id="defs4">
    <linearGradient
       id="paint0_linear_906_20"
       x1="42.714001"
       y1="4"
       x2="42.714001"
       y2="59.999001"
       gradientUnits="userSpaceOnUse"
       gradientTransform="matrix(0.57142857,0,0,0.57143878,-2.2857143,-2.2857551)">
      <stop
         stop-color="#D800BD"
         id="stop1"
         offset="0"
         style="stop-color:#006cff;stop-opacity:1;" />
      <stop
         offset="1"
         stop-color="#FFB243"
         id="stop4"
         style="stop-color:#00f1fa;stop-opacity:1;" />
    </linearGradient>
  </defs>
</svg>
