<?xml version="1.0" encoding="UTF-8" standalone="no"?>
<svg
   width="32"
   height="32"
   viewBox="0 0 32 32"
   fill="none"
   version="1.1"
   id="svg11"
   sodipodi:docname="history.svg"
   inkscape:version="1.3 (0e150ed6c4, 2023-07-21)"
   xmlns:inkscape="http://www.inkscape.org/namespaces/inkscape"
   xmlns:sodipodi="http://sodipodi.sourceforge.net/DTD/sodipodi-0.dtd"
   xmlns="http://www.w3.org/2000/svg"
   xmlns:svg="http://www.w3.org/2000/svg">
  <sodipodi:namedview
     id="namedview13"
     pagecolor="#ffffff"
     bordercolor="#666666"
     borderopacity="1.0"
     inkscape:pageshadow="2"
     inkscape:pageopacity="0.0"
     inkscape:pagecheckerboard="0"
     showgrid="false"
     inkscape:zoom="4.984375"
     inkscape:cx="8.8275862"
     inkscape:cy="31.398119"
     inkscape:current-layer="svg11"
     inkscape:showpageshadow="2"
     inkscape:deskcolor="#d1d1d1" />
  <path
     d="M 16,0 C 7.16344,0 0,7.16344 0,16 0,24.836534 7.16344,32 16,32 24.836534,32 32,24.836534 32,16 32,7.16344 24.836534,0 16,0 Z m 0,2.6666666 c 7.363734,0 13.333334,5.9695468 13.333334,13.3333334 0,7.363734 -5.9696,13.333334 -13.333334,13.333334 C 8.6362134,29.333334 2.6666666,23.363734 2.6666666,16 2.6666666,8.6362134 8.6362134,2.6666666 16,2.6666666 Z M 13.333333,5.3333334 V 16 18.666666 H 16 26.666666 V 16 H 16 V 5.3333334 Z"
     fill="url(#paint0_linear)"
     id="path2"
     style="fill:url(#paint0_linear);stroke-width:2.66666" />
  <defs
     id="defs9">
    <linearGradient
       id="paint0_linear"
       x1="8"
       y1="14"
       x2="8"
       y2="2"
       gradientUnits="userSpaceOnUse"
       gradientTransform="matrix(2.6666666,0,0,2.6666666,-5.3333334,-5.3333334)">
      <stop
         stop-color="#dd55ff"
         id="stop4"
         offset="0"
         style="stop-color:#00f1fa;stop-opacity:1;" />
      <stop
         offset="1"
         stop-color="#6400ff"
         id="stop6"
         style="stop-color:#006cff;stop-opacity:1;" />
    </linearGradient>
  </defs>
</svg>
