<?xml version="1.0" encoding="UTF-8" standalone="no"?>
<svg
   version="1.1"
   id="svg815"
   width="32"
   height="32.000004"
   viewBox="0 0 32.000002 32.000002"
   sodipodi:docname="newtab-logo.svg"
   inkscape:version="1.3 (0e150ed6c4, 2023-07-21)"
   xmlns:inkscape="http://www.inkscape.org/namespaces/inkscape"
   xmlns:sodipodi="http://sodipodi.sourceforge.net/DTD/sodipodi-0.dtd"
   xmlns:xlink="http://www.w3.org/1999/xlink"
   xmlns="http://www.w3.org/2000/svg"
   xmlns:svg="http://www.w3.org/2000/svg"
   xmlns:rdf="http://www.w3.org/1999/02/22-rdf-syntax-ns#"
   xmlns:cc="http://creativecommons.org/ns#"
   xmlns:dc="http://purl.org/dc/elements/1.1/">
  <metadata
     id="metadata821">
    <rdf:RDF>
      <cc:Work
         rdf:about="">
        <dc:format>image/svg+xml</dc:format>
        <dc:type
           rdf:resource="http://purl.org/dc/dcmitype/StillImage" />
      </cc:Work>
    </rdf:RDF>
  </metadata>
  <defs
     id="defs819">
    <linearGradient
       id="linearGradient850">
      <stop
         style="stop-color:#00ddff;stop-opacity:1;"
         offset="0"
         id="stop846" />
      <stop
         style="stop-color:#5558ff;stop-opacity:1;"
         offset="1"
         id="stop848" />
    </linearGradient>
    <linearGradient
       gradientUnits="userSpaceOnUse"
       y2="16.978334"
       x2="44.325859"
       y1="44.51107"
       x1="13.680312"
       id="linearGradient848"
       xlink:href="#linearGradient850"
       inkscape:collect="always"
       gradientTransform="matrix(0.6806407,0,0,0.66610172,-0.19927291,-0.36602883)" />
  </defs>
  <sodipodi:namedview
     pagecolor="#101513"
     bordercolor="#666666"
     borderopacity="1"
     objecttolerance="10"
     gridtolerance="10"
     guidetolerance="10"
     inkscape:pageopacity="0"
     inkscape:pageshadow="2"
     inkscape:window-width="1366"
     inkscape:window-height="706"
     id="namedview817"
     showgrid="true"
     inkscape:zoom="15.999999"
     inkscape:cx="19.031251"
     inkscape:cy="15.250001"
     inkscape:window-x="0"
     inkscape:window-y="25"
     inkscape:window-maximized="1"
     inkscape:current-layer="svg815"
     showguides="false"
     inkscape:document-rotation="0"
     inkscape:pagecheckerboard="0"
     inkscape:snap-grids="false"
     inkscape:showpageshadow="2"
     inkscape:deskcolor="#101513">
    <inkscape:grid
       type="xygrid"
       id="grid935"
       originx="3.2094509e-06"
       originy="4.4823246e-06"
       spacingy="1"
       spacingx="1"
       units="px"
       visible="true" />
  </sodipodi:namedview>
  <path
     id="path4549"
     style="fill:none;stroke:url(#linearGradient848);stroke-width:2.37225;stroke-linecap:round;stroke-linejoin:round;stroke-miterlimit:4;stroke-dasharray:none;stroke-opacity:1"
     d="M 3.6688341,10.856558 3.4946485,11.550253 M 21.243063,19.75275 c 0,0 9.913555,-4.008824 4.121967,-14.8376692 M 21.348575,2.0552779 c 0,0 -5.134854,-1.95101567 -10.538176,0 m 2.25819,-0.5590417 c 0,0 -2.337222,0.1278136 -4.7322596,1.6886303 0,0 5.4244156,-3.08149979 10.9112276,-0.4746211 0.681076,0.4409761 4.814096,1.9484909 6.386654,6.9785607 0,0 1.601161,4.3018979 -1.577709,8.0305159 0,0 -2.574885,3.254992 -6.363401,2.171095 0,0 -3.355464,-0.622787 -4.182837,-4.047913 0,0 -0.783832,-2.297868 1.001562,-4.335615 m 0,0 c 0,0 -3.832066,0.130075 -3.614329,5.723002 m 0,0 c 0,0 -3.6578859,-6.676824 4.70298,-12.0529706 0,0 -7.4028454,-1.5174707 -12.1058291,6.3733326 0,0 0.6531931,-3.2950613 1.0451101,-4.5523861 0,0 -4.85022779,3.6852641 -2.8906498,13.2235941 0,0 1.5407174,5.939771 7.4629957,9.061409 0,0 6.0093661,3.685263 13.8912251,-0.260129 0,0 4.049795,-1.734242 6.357737,-6.676834 0,0 2.786956,-5.853064 0.609642,-11.402639 0,0 -2.612766,-6.7635434 -8.622133,-8.8879901"
     inkscape:connector-curvature="0"
     sodipodi:nodetypes="cccccccccccccccccccccccccc" />
</svg>
