<?xml version="1.0" encoding="UTF-8" standalone="no"?>
<svg
   width="24"
   height="24"
   viewBox="0 0 24 24"
   fill="none"
   version="1.1"
   id="svg11"
   sodipodi:docname="pan-down.svg"
   inkscape:version="1.1.2 (0a00cf5339, 2022-02-04)"
   xmlns:inkscape="http://www.inkscape.org/namespaces/inkscape"
   xmlns:sodipodi="http://sodipodi.sourceforge.net/DTD/sodipodi-0.dtd"
   xmlns="http://www.w3.org/2000/svg"
   xmlns:svg="http://www.w3.org/2000/svg">
  <sodipodi:namedview
     id="namedview13"
     pagecolor="#ffffff"
     bordercolor="#666666"
     borderopacity="1.0"
     inkscape:pageshadow="2"
     inkscape:pageopacity="0.0"
     inkscape:pagecheckerboard="0"
     showgrid="true"
     gridtolerance="4.8"
     inkscape:zoom="32"
     inkscape:cx="9.296875"
     inkscape:cy="14.9375"
     inkscape:current-layer="svg11">
    <inkscape:grid
       type="xygrid"
       id="grid1244"
       spacingx="0.5"
       spacingy="0.5" />
  </sodipodi:namedview>
  <path
     d="m 22.575735,6.5818272 c 0.13655,0.128085 0.244945,0.2802204 0.318851,0.447801 0.0739,0.1675806 0.111914,0.3471864 0.111914,0.5285575 0,0.1813709 -0.03801,0.3609768 -0.111914,0.5285573 -0.07391,0.1674704 -0.182301,0.319716 -0.318851,0.447801 l -9.748524,9.167829 c -0.108513,0.102269 -0.237437,0.183412 -0.379383,0.238772 -0.141829,0.05537 -0.293981,0.08386 -0.447658,0.08386 -0.153677,0 -0.305712,-0.0285 -0.447658,-0.08386 -0.141946,-0.05536 -0.27087,-0.136503 -0.379383,-0.238772 L 1.424617,8.534544 c -0.57482269,-0.5405826 -0.57482269,-1.4121341 0,-1.9527168 0.5748227,-0.5405826 1.5015777,-0.5405826 2.0764004,0 l 8.5050186,7.9873848 8.50503,-7.9984171 c 0.563091,-0.5295503 1.501577,-0.5295503 2.064669,0.011032 z"
     fill="url(#paint0_linear)"
     id="path2"
     style="fill:url(#paint0_linear);stroke-width:1.13763" />
  <defs
     id="defs9">
    <linearGradient
       id="paint0_linear"
       x1="12.389434"
       y1="7.2545543"
       x2="12.378265"
       y2="18"
       gradientUnits="userSpaceOnUse"
       gradientTransform="matrix(1.1731076,0,0,-1.1032298,-2.5257171,26.034196)">
      <stop
         stop-color="#e5f230"
         id="stop4" />
      <stop
         offset="1"
         stop-color="#54d863"
         id="stop6" />
    </linearGradient>
  </defs>
</svg>
