<?xml version="1.0" encoding="UTF-8" standalone="no"?>
<svg
   width="32"
   height="32"
   viewBox="0 0 32 32"
   fill="none"
   version="1.1"
   id="svg11"
   sodipodi:docname="application-menu.svg"
   inkscape:version="1.3.2 (091e20ef0f, 2023-11-25, custom)"
   xmlns:inkscape="http://www.inkscape.org/namespaces/inkscape"
   xmlns:sodipodi="http://sodipodi.sourceforge.net/DTD/sodipodi-0.dtd"
   xmlns="http://www.w3.org/2000/svg"
   xmlns:svg="http://www.w3.org/2000/svg">
  <sodipodi:namedview
     id="namedview13"
     pagecolor="#ffffff"
     bordercolor="#666666"
     borderopacity="1.0"
     inkscape:pageshadow="2"
     inkscape:pageopacity="0.0"
     inkscape:pagecheckerboard="0"
     showgrid="true"
     inkscape:zoom="16"
     inkscape:cx="5.40625"
     inkscape:cy="14.46875"
     inkscape:current-layer="svg11"
     inkscape:showpageshadow="2"
     inkscape:deskcolor="#d1d1d1">
    <inkscape:grid
       type="xygrid"
       id="grid830"
       originx="-2.2702706"
       originy="-9.3611116"
       spacingy="1"
       spacingx="1"
       units="px"
       visible="true" />
  </sodipodi:namedview>
  <path
     d="m 29.6,8.6896974 c 1.325512,0 2.4,-1.09095 2.4,-2.436768 v 0 C 32,4.9071114 30.925512,3.8161615 29.6,3.8161615 H 2.4 c -1.3254815,0 -2.4,1.0909499 -2.4,2.4367679 v 0 c 0,1.345818 1.0745185,2.436768 2.4,2.436768 z m 0,9.7470706 c 1.325512,0 2.4,-1.09095 2.4,-2.436768 v 0 c 0,-1.345818 -1.074488,-2.436768 -2.4,-2.436768 H 2.4 C 1.0745185,13.563232 0,14.654183 0,16 v 0 c 0,1.345818 1.0745185,2.436768 2.4,2.436768 z m 0,9.74707 c 1.325512,0 2.4,-1.09095 2.4,-2.436768 v 0 c 0,-1.345818 -1.074488,-2.436768 -2.4,-2.436768 H 2.4 c -1.3254815,0 -2.4,1.09095 -2.4,2.436768 v 0 c 0,1.345818 1.0745185,2.436768 2.4,2.436768 z"
     id="path2"
     style="display:none;fill:url(#paint0_linear);stroke-width:0.597118" />
  <path
     d="M 2.4,8.8 C 1.074489,8.8 0,7.7255111 0,6.4 v 0 C 0,5.0744889 1.074489,4 2.4,4 H 29.6 C 30.925481,4 32,5.0744889 32,6.4 v 0 c 0,1.3255111 -1.074519,2.4 -2.4,2.4 z m 0,9.6 C 1.074489,18.4 0,17.325511 0,16 v 0 c 0,-1.325511 1.074489,-2.4 2.4,-2.4 h 27.2 c 1.325481,0 2.4,1.074489 2.4,2.4 v 0 c 0,1.325511 -1.074519,2.4 -2.4,2.4 z m 0,9.6 C 1.074489,28 0,26.925511 0,25.6 v 0 c 0,-1.325511 1.074489,-2.4 2.4,-2.4 h 27.2 c 1.325481,0 2.4,1.074489 2.4,2.4 v 0 c 0,1.325511 -1.074519,2.4 -2.4,2.4 z"
     id="path1"
     style="display:inline;fill:url(#paint0_linear-6);stroke-width:0.592593" />
  <defs
     id="defs9">
    <linearGradient
       id="paint0_linear"
       x1="31.543919"
       y1="58.242424"
       x2="54.950001"
       y2="28.200001"
       gradientUnits="userSpaceOnUse"
       gradientTransform="matrix(0.59259259,0,0,0.60167102,-2.962963,-3.403891)">
      <stop
         offset="0"
         id="stop6"
         style="stop-color:#b900ff;stop-opacity:1;" />
      <stop
         id="stop4"
         offset="1"
         style="stop-color:#6444ff;stop-opacity:1;" />
    </linearGradient>
    <linearGradient
       id="paint0_linear-6"
       x1="9.0500002"
       y1="28.200001"
       x2="32.483829"
       y2="58.353367"
       gradientUnits="userSpaceOnUse"
       gradientTransform="matrix(-0.59259259,0,0,0.59259259,34.962963,-3.111111)">
      <stop
         id="stop1"
         offset="0"
         style="stop-color:#6444ff;stop-opacity:1;" />
      <stop
         offset="1"
         id="stop2"
         style="stop-color:#b900ff;stop-opacity:1;" />
    </linearGradient>
  </defs>
</svg>
