<?xml version="1.0" encoding="UTF-8" standalone="no"?>
<svg
   width="32"
   height="32"
   viewBox="0 0 32 32"
   fill="none"
   version="1.1"
   id="svg11"
   sodipodi:docname="apps.svg"
   inkscape:version="1.1.2 (0a00cf5339, 2022-02-04)"
   xmlns:inkscape="http://www.inkscape.org/namespaces/inkscape"
   xmlns:sodipodi="http://sodipodi.sourceforge.net/DTD/sodipodi-0.dtd"
   xmlns="http://www.w3.org/2000/svg"
   xmlns:svg="http://www.w3.org/2000/svg">
  <sodipodi:namedview
     id="namedview13"
     pagecolor="#ffffff"
     bordercolor="#666666"
     borderopacity="1.0"
     inkscape:pageshadow="2"
     inkscape:pageopacity="0.0"
     inkscape:pagecheckerboard="0"
     showgrid="false"
     inkscape:zoom="19.9375"
     inkscape:cx="15.974922"
     inkscape:cy="16"
     inkscape:current-layer="svg11" />
  <path
     d="m 29.777776,26.33333 v -3.444443 c 0,-0.91358 -0.36293,-1.789619 -1.008882,-2.435565 -0.645949,-0.646063 -1.52199,-1.008878 -2.435576,-1.008878 h -3.444459 c -0.91347,0 -1.789625,0.362815 -2.435576,1.008878 -0.645951,0.645946 -1.008882,1.521985 -1.008882,2.435565 v 3.444443 c 0,0.913467 0.362931,1.789619 1.008882,2.435568 0.645951,0.645947 1.522106,1.008876 2.435576,1.008876 h 3.444459 M 2.222224,5.6666696 c 0,-0.9135239 0.3628968,-1.7896294 1.008859,-2.435589 C 3.8770453,2.5851211 4.7531548,2.2222259 5.6666826,2.2222259 h 3.4444582 c 0.9134702,0 1.7896252,0.3628952 2.4355762,1.0088547 0.645951,0.6459596 1.008881,1.5220651 1.008881,2.435589 v 3.4444442 c 0,0.9134662 -0.36293,1.7896172 -1.008881,2.4355652 -0.645951,0.645949 -1.522106,1.008878 -2.4355762,1.008878 H 5.6666826 c -0.9135278,0 -1.7896373,-0.362929 -2.4355996,-1.008878 C 2.5851208,10.900731 2.222224,10.02458 2.222224,9.1111138 Z m 17.222177,0 c 0,-0.9135239 0.362931,-1.7896294 1.008882,-2.435589 0.645951,-0.6459595 1.522106,-1.0088547 2.435576,-1.0088547 h 3.444459 c 0.913586,0 1.789627,0.3628952 2.435576,1.0088547 0.645952,0.6459596 1.008882,1.5220651 1.008882,2.435589 v 3.4444442 c 0,0.9134662 -0.36293,1.7896172 -1.008882,2.4355652 -0.645949,0.645949 -1.52199,1.008878 -2.435576,1.008878 h -3.444459 c -0.91347,0 -1.789625,-0.362929 -2.435576,-1.008878 C 19.807332,10.900731 19.444401,10.02458 19.444401,9.1111138 Z M 2.222224,22.888887 c 0,-0.91358 0.3628968,-1.789619 1.008859,-2.435565 0.6459623,-0.646063 1.5220718,-1.008878 2.4355996,-1.008878 h 3.4444582 c 0.9134702,0 1.7896252,0.362815 2.4355762,1.008878 0.645951,0.645946 1.008881,1.521985 1.008881,2.435565 v 3.444443 c 0,0.913467 -0.36293,1.789619 -1.008881,2.435568 -0.645951,0.645947 -1.522106,1.008876 -2.4355762,1.008876 H 5.6666826 c -0.9135278,0 -1.7896373,-0.362929 -2.4355996,-1.008876 C 2.5851208,28.122949 2.222224,27.246797 2.222224,26.33333 Z"
     stroke="url(#paint0_linear)"
     stroke-width="3.44445"
     stroke-linecap="round"
     stroke-linejoin="round"
     id="path2"
     style="stroke:url(#paint0_linear)" />
  <defs
     id="defs9">
    <linearGradient
       id="paint0_linear"
       x1="15.0421"
       y1="4.48244"
       x2="18.0137"
       y2="26.9921"
       gradientUnits="userSpaceOnUse"
       gradientTransform="matrix(1.1481527,0,0,1.148148,-2.3703871,-2.3703656)">
      <stop
         stop-color="#5558ff"
         id="stop4" />
      <stop
         offset="1"
         stop-color="#00ddff"
         id="stop6" />
    </linearGradient>
  </defs>
</svg>
