<?xml version="1.0" encoding="UTF-8" standalone="no"?>
<svg
   width="32"
   height="32"
   viewBox="0 0 32 32"
   fill="none"
   version="1.1"
   id="svg11"
   sodipodi:docname="apps3.svg"
   inkscape:version="1.3 (0e150ed6c4, 2023-07-21)"
   xmlns:inkscape="http://www.inkscape.org/namespaces/inkscape"
   xmlns:sodipodi="http://sodipodi.sourceforge.net/DTD/sodipodi-0.dtd"
   xmlns="http://www.w3.org/2000/svg"
   xmlns:svg="http://www.w3.org/2000/svg">
  <sodipodi:namedview
     id="namedview13"
     pagecolor="#ffffff"
     bordercolor="#666666"
     borderopacity="1.0"
     inkscape:pageshadow="2"
     inkscape:pageopacity="0.0"
     inkscape:pagecheckerboard="0"
     showgrid="true"
     inkscape:zoom="14.097941"
     inkscape:cx="9.6467988"
     inkscape:cy="14.718461"
     inkscape:current-layer="svg11"
     inkscape:showpageshadow="2"
     inkscape:deskcolor="#d1d1d1">
    <inkscape:grid
       type="xygrid"
       id="grid6391"
       originx="0"
       originy="0"
       spacingy="1"
       spacingx="1"
       units="px"
       visible="true" />
  </sodipodi:namedview>
  <path
     d="m 30.222219,26.666664 v -3.555555 c 0,-0.94305 -0.374637,-1.847348 -1.041426,-2.514131 -0.666786,-0.666904 -1.571087,-1.041422 -2.514142,-1.041422 H 23.11108 c -0.942937,0 -1.847355,0.374518 -2.514143,1.041422 -0.666788,0.666783 -1.041426,1.571081 -1.041426,2.514131 v 3.555555 c 0,0.942933 0.374638,1.847349 1.041426,2.514134 0.666788,0.666784 1.571206,1.041421 2.514143,1.041421 h 3.555571 c 0.838053,0 1.914191,-0.422476 2.514251,-1.041315 0.61939,-0.638774 1.041317,-1.696729 1.041317,-2.51424 z M 1.7777808,5.3333357 c 0,-0.9429925 0.3746031,-1.8473595 1.0414028,-2.5141565 0.6667998,-0.666797 1.5711707,-1.0413985 2.5141672,-1.0413985 h 3.5555695 c 0.9429369,0 1.8473547,0.3746015 2.5141427,1.0413985 0.666789,0.666797 1.041425,1.571164 1.041425,2.5141565 v 3.5555556 c 0,0.9429329 -0.374636,1.8473467 -1.041425,2.5141317 -0.666788,0.666787 -1.5712058,1.041422 -2.5141427,1.041422 H 5.3333508 c -0.9429965,0 -1.8473674,-0.374635 -2.5141672,-1.041422 C 2.1523839,10.736238 1.7777808,9.8318242 1.7777808,8.8888913 Z m 17.7777302,0 c 0,-0.9429925 0.374638,-1.8473595 1.041426,-2.5141565 0.666788,-0.666797 1.571206,-1.0413985 2.514143,-1.0413985 h 3.555571 c 0.943055,0 1.847356,0.3746015 2.514142,1.0413985 0.666789,0.666797 1.041426,1.571164 1.041426,2.5141565 v 3.5555556 c 0,0.9429329 -0.374637,1.8473467 -1.041426,2.5141317 -0.666786,0.666787 -1.571087,1.041422 -2.514142,1.041422 H 23.11108 c -0.942937,0 -1.847355,-0.374635 -2.514143,-1.041422 C 19.930149,10.736238 19.555511,9.8318242 19.555511,8.8888913 Z M 1.7777808,23.111109 c 0,-0.94305 0.3746031,-1.847348 1.0414028,-2.514131 0.6667998,-0.666904 1.5711707,-1.041422 2.5141672,-1.041422 h 3.5555695 c 0.9429369,0 1.8473547,0.374518 2.5141427,1.041422 0.666789,0.666783 1.041425,1.571081 1.041425,2.514131 v 3.555555 c 0,0.942933 -0.374636,1.847349 -1.041425,2.514134 -0.666788,0.666784 -1.5712058,1.041421 -2.5141427,1.041421 H 5.3333508 c -0.9429965,0 -1.8473674,-0.374637 -2.5141672,-1.041421 C 2.1523839,28.514013 1.7777808,27.609597 1.7777808,26.666664 Z"
     stroke="url(#paint0_linear)"
     stroke-width="3.55556"
     stroke-linecap="round"
     stroke-linejoin="round"
     id="path2"
     style="stroke:url(#paint0_linear)"
     sodipodi:nodetypes="sscsscsssssssssssssssssssssssssssssssssscsscssssssss" />
  <defs
     id="defs9">
    <linearGradient
       id="paint0_linear"
       x1="15.999951"
       y1="5.5483837"
       x2="15.999951"
       y2="29.064516"
       gradientUnits="userSpaceOnUse"
       gradientTransform="matrix(1.1851898,0,0,1.1851851,-2.9629786,-2.9629591)">
      <stop
         stop-color="#5558ff"
         id="stop4"
         offset="0"
         style="stop-color:#006cff;stop-opacity:1;" />
      <stop
         offset="1"
         stop-color="#00ddff"
         id="stop6"
         style="stop-color:#00f1fa;stop-opacity:1;" />
    </linearGradient>
  </defs>
</svg>
