<?xml version="1.0" encoding="UTF-8" standalone="no"?>
<svg
   width="16"
   height="16"
   viewBox="0 0 16 16"
   fill="none"
   version="1.1"
   id="svg18"
   sodipodi:docname="audio-muted.svg"
   inkscape:version="1.4 (e7c3feb100, 2024-10-09)"
   xmlns:inkscape="http://www.inkscape.org/namespaces/inkscape"
   xmlns:sodipodi="http://sodipodi.sourceforge.net/DTD/sodipodi-0.dtd"
   xmlns:xlink="http://www.w3.org/1999/xlink"
   xmlns="http://www.w3.org/2000/svg"
   xmlns:svg="http://www.w3.org/2000/svg">
  <sodipodi:namedview
     id="namedview20"
     pagecolor="#4a4a4a"
     bordercolor="#666666"
     borderopacity="1.0"
     inkscape:showpageshadow="2"
     inkscape:pageopacity="0.0"
     inkscape:pagecheckerboard="0"
     inkscape:deskcolor="#d1d1d1"
     showgrid="false"
     inkscape:zoom="64"
     inkscape:cx="12.601562"
     inkscape:cy="8.328125"
     inkscape:current-layer="svg18" />
  <style
     type="text/css"
     id="current-color-scheme">.ColorScheme-Text{color:#dddddd;}.ColorScheme-Background{color:#1a1a1a;}.ColorScheme-Highlight{color:#aaaaac30;}.ColorScheme-ViewText{color:#dddddd;}.ColorScheme-ViewBackground{color:#1a1a1a01;}.ColorScheme-ViewHover{color:#aaaaac30;}.ColorScheme-ViewFocus{color:#aaaaac30;}.ColorScheme-ButtonText{color:#bbbbbb;}.ColorScheme-ButtonBackground{color:#aaaaac20;}.ColorScheme-ButtonHover{color:#aaaaac30;}.ColorScheme-ButtonFocus{color:#aaaaac30;}.ColorScheme-NegativeText { color: #8500ff; } </style>
  <path
     class="ColorScheme-Text"
     fill-rule="evenodd"
     clip-rule="evenodd"
     d="m 7.9612614,2.0574615 c -0.170184,-0.085886 -0.360846,-0.122956 -0.5508194,-0.107076 -0.189986,0.01586 -0.3718418,0.084064 -0.5254222,0.19702 -0.01028,0.00756 -0.020364,0.0154 -0.030242,0.023488 L 3.540153,4.8847009 H 1.031792 c -0.2736436,0 -0.5360864,0.1087 -0.7295862,0.3022032 C 0.1087066,5.3804113 0,5.6428517 0,5.9164961 v 4.1138129 c 0,0.273657 0.108706,0.536097 0.3022062,0.729589 0.1935,0.193502 0.4559424,0.302215 0.7295862,0.302215 h 2.5083608 l 3.3146228,2.713783 c 0.00988,0.0081 0.01996,0.01586 0.030242,0.02349 0.15358,0.112906 0.3354362,0.181168 0.5254222,0.197032 0.189974,0.01586 0.3806358,-0.02115 0.5508198,-0.107126 0.170184,-0.08585 0.3132606,-0.217204 0.4133272,-0.379553 0.100066,-0.162226 0.153222,-0.349051 0.153568,-0.539689 v -0.0014 -9.9906419 -0.00137 C 8.527812,2.7860367 8.4746518,2.5992117 8.374589,2.4369601 8.2745224,2.2746847 8.1314578,2.1433169 7.9612614,2.0574193 Z"
     id="path2"
     style="display:inline;fill:#000000;fill-opacity:1;stroke:none;stroke-width:0.2;stroke-dasharray:none;stroke-opacity:1"
     sodipodi:nodetypes="ccsccsssscscccsccscccccc" />
  <path
     class="ColorScheme-Text"
     fill-rule="evenodd"
     clip-rule="evenodd"
     d="m 7.9612614,3.0840617 c -0.170184,-0.085886 -0.360846,-0.122956 -0.5508194,-0.107076 -0.189986,0.01586 -0.3718418,0.084064 -0.5254222,0.19702 -0.01028,0.00756 -0.020364,0.0154 -0.030242,0.023488 L 3.540153,5.9113011 H 1.031792 c -0.2736436,0 -0.5360864,0.1087 -0.7295862,0.3022032 C 0.1087066,6.4070115 0,6.6694519 0,6.9430963 V 11.05691 c 0,0.273657 0.108706,0.536097 0.3022062,0.729589 0.1935,0.193502 0.4559424,0.302215 0.7295862,0.302215 h 2.5083608 l 3.3146228,2.713783 c 0.00988,0.0081 0.01996,0.01586 0.030242,0.02349 0.15358,0.112906 0.3354362,0.181168 0.5254222,0.197032 0.189974,0.01586 0.3806358,-0.02115 0.5508198,-0.107126 0.170184,-0.08585 0.3132606,-0.217204 0.4133272,-0.379553 0.100066,-0.162226 0.153222,-0.349051 0.153568,-0.539689 v -0.0014 -9.9906427 -0.00137 C 8.527812,3.8126369 8.4746518,3.6258119 8.374589,3.4635603 8.2745224,3.3012849 8.1314578,3.1699171 7.9612614,3.0840195 Z"
     id="path5"
     style="display:inline;fill:#000000;fill-opacity:1;stroke:none;stroke-width:0.2;stroke-dasharray:none;stroke-opacity:1"
     sodipodi:nodetypes="ccsccsssscscccsccscccccc" />
  <path
     class="ColorScheme-Text"
     fill-rule="evenodd"
     clip-rule="evenodd"
     d="M 7.9612614,1.0840617 C 7.7910774,0.99817566 7.6004154,0.96110566 7.410442,0.97698566 c -0.189986,0.01586 -0.3718418,0.084064 -0.5254222,0.19702004 -0.01028,0.00756 -0.020364,0.0154 -0.030242,0.023488 L 3.540153,3.9113011 H 1.031792 c -0.2736436,0 -0.5360864,0.1087 -0.7295862,0.3022032 C 0.1087066,4.4070115 0,4.6694519 0,4.9430963 v 4.113813 c 0,0.273657 0.108706,0.536097 0.3022062,0.729589 0.1935,0.193502 0.4559424,0.3022147 0.7295862,0.3022147 h 2.5083608 l 3.3146228,2.713784 c 0.00988,0.0081 0.01996,0.01586 0.030242,0.02349 0.15358,0.112906 0.3354362,0.181168 0.5254222,0.197032 0.189974,0.01586 0.3806358,-0.02115 0.5508198,-0.107126 0.170184,-0.08585 0.3132606,-0.217204 0.4133272,-0.379553 0.100066,-0.162226 0.153222,-0.349051 0.153568,-0.539689 v -0.0014 -9.9906427 -0.00137 C 8.527812,1.8126368 8.4746518,1.6258118 8.374589,1.4635603 8.2745224,1.3012849 8.1314578,1.1699171 7.9612614,1.0840195 Z"
     id="path3"
     style="display:inline;fill:#000000;fill-opacity:1;stroke:none;stroke-width:0.2;stroke-dasharray:none;stroke-opacity:1"
     sodipodi:nodetypes="ccsccsssscscccsccscccccc" />
  <path
     class="ColorScheme-Text"
     fill-rule="evenodd"
     clip-rule="evenodd"
     d="m 8.5612614,3.0840617 c -0.170184,-0.085886 -0.360846,-0.122956 -0.5508194,-0.107076 -0.189986,0.01586 -0.3718418,0.084064 -0.5254222,0.19702 -0.01028,0.00756 -0.020364,0.0154 -0.030242,0.023488 L 4.140153,5.9113011 H 1.631792 c -0.2736436,0 -0.5360864,0.1087 -0.7295862,0.3022032 C 0.7087066,6.4070115 0.6,6.6694519 0.6,6.9430963 V 11.05691 c 0,0.273657 0.108706,0.536097 0.3022062,0.729589 0.1935,0.193502 0.4559424,0.302215 0.7295862,0.302215 h 2.5083608 l 3.3146228,2.713783 c 0.00988,0.0081 0.01996,0.01586 0.030242,0.02349 0.15358,0.112906 0.3354362,0.181168 0.5254222,0.197032 0.189974,0.01586 0.3806358,-0.02115 0.5508198,-0.107126 0.170184,-0.08585 0.3132606,-0.217204 0.4133272,-0.379553 0.100066,-0.162226 0.153222,-0.349051 0.153568,-0.539689 v -0.0014 -9.9906427 -0.00137 C 9.127812,3.8126369 9.0746518,3.6258119 8.974589,3.4635603 8.8745224,3.3012849 8.7314578,3.1699171 8.5612614,3.0840195 Z"
     id="path6"
     style="display:inline;fill:#000000;fill-opacity:1;stroke:none;stroke-width:0.2;stroke-dasharray:none;stroke-opacity:1"
     sodipodi:nodetypes="ccsccsssscscccsccscccccc" />
  <path
     class="ColorScheme-Text"
     fill-rule="evenodd"
     clip-rule="evenodd"
     d="M 8.5612614,1.0840617 C 8.3910774,0.99817566 8.2004154,0.96110566 8.010442,0.97698566 c -0.189986,0.01586 -0.3718418,0.084064 -0.5254222,0.19702004 -0.01028,0.00756 -0.020364,0.0154 -0.030242,0.023488 L 4.140153,3.9113011 H 1.631792 c -0.2736436,0 -0.5360864,0.1087 -0.7295862,0.3022032 C 0.7087066,4.4070115 0.6,4.6694519 0.6,4.9430963 v 4.113813 c 0,0.273657 0.108706,0.536097 0.3022062,0.729589 0.1935,0.193502 0.4559424,0.3022147 0.7295862,0.3022147 h 2.5083608 l 3.3146228,2.713784 c 0.00988,0.0081 0.01996,0.01586 0.030242,0.02349 0.15358,0.112906 0.3354362,0.181168 0.5254222,0.197032 0.189974,0.01586 0.3806358,-0.02115 0.5508198,-0.107126 0.170184,-0.08585 0.3132606,-0.217204 0.4133272,-0.379553 0.100066,-0.162226 0.153222,-0.349051 0.153568,-0.539689 v -0.0014 -9.9906427 -0.00137 C 9.127812,1.8126368 9.0746518,1.6258118 8.974589,1.4635603 8.8745224,1.3012849 8.7314578,1.1699171 8.5612614,1.0840195 Z"
     id="path7"
     style="display:inline;fill:#000000;fill-opacity:1;stroke:none;stroke-width:0.2;stroke-dasharray:none;stroke-opacity:1"
     sodipodi:nodetypes="ccsccsssscscccsccscccccc" />
  <path
     class="ColorScheme-Text"
     fill-rule="evenodd"
     clip-rule="evenodd"
     d="M 13.788694,3.7603209 C 13.594151,3.4303657 13.169019,3.3205693 12.839077,3.5150667 c -0.329942,0.1945038 -0.439771,0.6196486 -0.245228,0.9495908 0.653768,1.1091094 1.01917,2.0116846 1.01917,3.5087412 0,1.4935564 -0.381083,2.4069973 -1.021903,3.5132893 -0.19194,0.331374 -0.07886,0.755725 0.25258,0.94773 0.331309,0.19194 0.755595,0.07892 0.947665,-0.25258 C 14.508242,10.94405 15,9.7891541 15,7.9733987 15,6.1610979 14.528868,5.0160013 13.788694,3.7603209 Z M 11.733979,5.4492465 C 11.558435,5.1088613 11.1402,4.9752449 10.799783,5.1508279 c -0.340418,0.175564 -0.47406,0.593844 -0.298386,0.9342356 0.305998,0.5932908 0.480371,1.2050926 0.480371,1.8883352 0,0.6696442 -0.182114,1.3001844 -0.482518,1.8924674 -0.173332,0.3415229 -0.03689,0.7589119 0.304697,0.9321789 0.341524,0.173268 0.758913,0.03689 0.932244,-0.304697 0.378416,-0.7459649 0.632558,-1.5907627 0.632558,-2.5199493 0,-0.9376448 -0.243732,-1.766105 -0.63477,-2.5241522 z"
     id="path4"
     style="display:none;fill:currentColor;fill-opacity:1;stroke-width:0.650646"
     sodipodi:nodetypes="cccscccsccccscccsc" />
  <defs
     id="defs16">
    <linearGradient
       id="linearGradient9689"
       x1="7.4274006"
       y1="21.325018"
       x2="20.555401"
       y2="5.5247698"
       gradientUnits="userSpaceOnUse"
       gradientTransform="translate(0.30000015,-0.06250654)">
      <stop
         id="stop6"
         offset="0"
         style="stop-color:#b900ff;stop-opacity:1;" />
      <stop
         offset="1"
         id="stop8"
         style="stop-color:#6444ff;stop-opacity:1;" />
    </linearGradient>
    <linearGradient
       id="linearGradient1135"
       x1="17.296173"
       y1="2.7374878"
       x2="12.8548"
       y2="5.393187"
       gradientUnits="userSpaceOnUse"
       gradientTransform="translate(0.30000015)">
      <stop
         id="stop11"
         offset="0"
         style="stop-color:#000000;stop-opacity:0;" />
      <stop
         offset="1"
         id="stop13"
         style="stop-color:#000000;stop-opacity:0" />
    </linearGradient>
    <linearGradient
       inkscape:collect="always"
       xlink:href="#linearGradient9689"
       id="linearGradient2"
       x1="6.2782483"
       y1="21.262497"
       x2="20.8554"
       y2="5.5247693"
       gradientUnits="userSpaceOnUse" />
    <linearGradient
       id="paint0_linear"
       x1="28.999437"
       y1="113.15477"
       x2="92.128899"
       y2="28.7416"
       gradientUnits="userSpaceOnUse">
      <stop
         id="stop1661"
         offset="0"
         style="stop-color:#b900ff;stop-opacity:1;" />
      <stop
         offset="1"
         id="stop1663"
         style="stop-color:#6444ff;stop-opacity:1;" />
    </linearGradient>
  </defs>
  <path
     class="ColorScheme-Text"
     fill-rule="evenodd"
     clip-rule="evenodd"
     d="m 8.9612614,2.0574615 c -0.170184,-0.085886 -0.360846,-0.122956 -0.5508194,-0.107076 -0.189986,0.01586 -0.3718418,0.084064 -0.5254222,0.19702 -0.01028,0.00756 -0.020364,0.0154 -0.030242,0.023488 L 4.540153,4.8847009 H 2.031792 c -0.2736436,0 -0.5360864,0.1087 -0.7295862,0.3022032 C 1.1087066,5.3804113 1,5.6428517 1,5.9164961 v 4.1138129 c 0,0.273657 0.108706,0.536097 0.3022062,0.729589 0.1935,0.193502 0.4559424,0.302215 0.7295862,0.302215 h 2.5083608 l 3.3146228,2.713783 c 0.00988,0.0081 0.01996,0.01586 0.030242,0.02349 0.15358,0.112906 0.3354362,0.181168 0.5254222,0.197032 0.189974,0.01586 0.3806358,-0.02115 0.5508198,-0.107126 0.170184,-0.08585 0.3132606,-0.217204 0.4133272,-0.379553 0.100066,-0.162226 0.153222,-0.349051 0.153568,-0.539689 v -0.0014 -9.9906419 -0.00137 C 9.527812,2.7860367 9.4746518,2.5992117 9.374589,2.4369601 9.2745224,2.2746847 9.1314578,2.1433169 8.9612614,2.0574193 Z"
     id="path1"
     style="display:inline;fill:currentColor;fill-opacity:1;stroke:none;stroke-width:0.2;stroke-dasharray:none;stroke-opacity:1"
     sodipodi:nodetypes="ccsccsssscscccsccscccccc" />
  <path
     class="ColorScheme-Text"
     fill-rule="evenodd"
     clip-rule="evenodd"
     d="M 6.082336,0.9193968 C 6.261088,0.8052908 6.498528,0.8577068 6.61264,1.0364718 7.160416,1.8947248 7.5,2.7309488 7.5,3.9999978 c 0,1.267277 -0.338432,2.12185 -0.889408,2.96665 C 6.494752,7.1443118 6.2568,7.1944238 6.0792,7.0785838 5.901536,6.9626798 5.851424,6.7247918 5.967264,6.5471278 6.450144,5.8067698 6.732,5.0957548 6.732,3.9999978 c 0,-1.093971 -0.280704,-1.788876 -0.76672,-2.550316 -0.114112,-0.178765 -0.0617,-0.41618 0.117056,-0.530285 z"
     id="path1659"
     style="color:currentColor;display:none;fill:currentColor;fill-opacity:1;stroke:none;stroke-width:1;stroke-opacity:1"
     sodipodi:nodetypes="ccscccscc" />
  <path
     class="ColorScheme-Text"
     fill-rule="evenodd"
     clip-rule="evenodd"
     d="M 5.8669897,2.7379234 C 5.7792177,2.5677308 5.5701002,2.5009226 5.3998917,2.5887141 c -0.170209,0.087782 -0.23703,0.296922 -0.149193,0.4671178 0.152999,0.2966454 0.2401855,0.6025463 0.2401855,0.9441676 0,0.3348221 -0.091057,0.6500922 -0.241259,0.9462337 -0.086666,0.1707615 -0.018445,0.379456 0.1523485,0.4660895 0.170762,0.086634 0.3794565,0.018445 0.466122,-0.1523485 0.189208,-0.3729825 0.316279,-0.7953814 0.316279,-1.2599747 0,-0.4688224 -0.121866,-0.8830525 -0.317385,-1.2620761 z"
     id="path8"
     style="display:none;fill:currentColor;fill-opacity:1;stroke-width:0.325323"
     sodipodi:nodetypes="cccscccsc" />
  <path
     class="ColorScheme-Text"
     fill-rule="evenodd"
     clip-rule="evenodd"
     d="M 6.282376,1.2348575 C 6.461128,1.1207515 6.698568,1.1731675 6.81268,1.3519325 7.360456,2.2101855 7.5,2.7309488 7.5,3.9999978 7.5,5.2672748 7.36164,5.721992 6.810664,6.566792 6.694824,6.744456 6.456872,6.794568 6.279272,6.678728 6.101608,6.562824 6.051496,6.324936 6.167336,6.147272 6.650216,5.406914 6.732,5.0957548 6.732,3.9999978 6.732,2.9060268 6.651336,2.5265825 6.16532,1.7651425 6.051208,1.5863775 6.10362,1.3489625 6.282376,1.2348575 Z"
     id="path9"
     style="color:currentColor;display:none;fill:currentColor;fill-opacity:1;stroke:none;stroke-width:1;stroke-opacity:1"
     sodipodi:nodetypes="ccscccscc" />
  <path
     class="ColorScheme-Text"
     id="path3-7"
     style="display:none;fill:currentColor;fill-opacity:1;fill-rule:evenodd;stroke:#dddddd;stroke-width:0.611;stroke-dasharray:none;stroke-opacity:1"
     d="m 10.653925,5.4820969 -0.0081,0.0069 -0.229014,0.230171 -0.0069,0.0069 c -0.152728,0.152745 -0.152728,0.403658 0,0.556342 l 0.235953,0.235954 1.45505,1.455049 -1.45505,1.455049 c -0.0042,0.0042 -0.0076,0.0084 -0.01157,0.01273 l -0.224382,0.224388 c -0.152728,0.152744 -0.152728,0.4024701 0,0.5551851 l 0.0069,0.0069 0.229014,0.229013 0.0081,0.0081 c 0.08591,0.08589 0.202958,0.122929 0.315762,0.112193 0.08774,-0.0083 0.172604,-0.04539 0.239424,-0.112193 l 0.235953,-0.235954 0.0012,-0.0012 1.453892,-1.4550501 1.45505,1.4550501 0.23711,0.23711 c 0.07635,0.07639 0.176935,0.114507 0.277593,0.114507 0.01258,0 0.02447,-0.0011 0.03701,-0.0023 0.08774,-0.0084 0.173777,-0.04536 0.24058,-0.112194 l 0.0069,-0.0081 0.230171,-0.229013 0.0069,-0.0069 c 0.152728,-0.152744 0.152728,-0.4024411 0,-0.5551851 l -0.209317,-0.208167 c -0.0084,-0.01026 -0.01822,-0.01937 -0.02776,-0.02892 l -1.455048,-1.455048 1.455049,-1.455049 c 0.0095,-0.0095 0.01941,-0.01866 0.02776,-0.02892 l 0.209352,-0.208195 c 0.152728,-0.152714 0.152728,-0.402411 0,-0.555186 l -0.0069,-0.0069 -0.230171,-0.23017 -0.0069,-0.0069 c -0.152695,-0.1527458 -0.40249,-0.152686 -0.555186,0 l -1.691002,1.691003 -1.45505,-1.453893 -0.0012,-0.0011 -0.236023,-0.235958 c -0.07631,-0.07634 -0.176918,-0.114509 -0.277559,-0.1145325 -0.100641,-2.35e-5 -0.201227,0.038137 -0.277591,0.1144835 z"
     sodipodi:nodetypes="cccsccccccsccssccccccsscccscccccccsccsccccccc" />
  <path
     id="path10"
     style="fill:currentColor;fill-opacity:1;fill-rule:evenodd;stroke:#dddddd;stroke-width:0.611;stroke-dasharray:none;stroke-opacity:1"
     class="ColorScheme-Text"
     d="M 10.931641 5.3671875 C 10.831018 5.36718 10.730644 5.406049 10.654297 5.4824219 L 10.646484 5.4882812 L 10.416016 5.71875 L 10.410156 5.7265625 C 10.257428 5.8793375 10.257428 6.128536 10.410156 6.28125 L 10.619141 6.4902344 C 10.627491 6.5004944 10.636984 6.5080781 10.646484 6.5175781 L 12.101562 7.9726562 L 10.646484 9.4277344 C 10.642284 9.4319344 10.638736 9.4370762 10.634766 9.4414062 C 10.629559 9.4466278 10.62377 9.4513773 10.619141 9.4570312 L 10.410156 9.6660156 C 10.257428 9.8187596 10.257428 10.067959 10.410156 10.220703 L 10.416016 10.228516 L 10.646484 10.457031 L 10.654297 10.464844 C 10.666717 10.477261 10.679744 10.487668 10.693359 10.498047 C 10.703597 10.505841 10.713796 10.512888 10.724609 10.519531 C 10.73819 10.527874 10.751306 10.53643 10.765625 10.542969 C 10.767544 10.543851 10.769554 10.544072 10.771484 10.544922 C 10.790329 10.553216 10.810363 10.55925 10.830078 10.564453 C 10.851381 10.570076 10.872704 10.574144 10.894531 10.576172 C 10.897093 10.57641 10.899779 10.575983 10.902344 10.576172 C 10.912104 10.577055 10.92168 10.580078 10.931641 10.580078 C 10.944223 10.580078 10.956217 10.577363 10.96875 10.576172 C 10.991186 10.574039 11.013301 10.570407 11.035156 10.564453 C 11.037747 10.563763 11.040391 10.563244 11.042969 10.5625 C 11.060042 10.557475 11.077372 10.552303 11.09375 10.544922 C 11.096524 10.543672 11.098813 10.542333 11.101562 10.541016 C 11.105484 10.539157 11.109412 10.537153 11.113281 10.535156 C 11.124672 10.529193 11.137568 10.522783 11.148438 10.515625 C 11.151166 10.513831 11.153557 10.511635 11.15625 10.509766 C 11.175018 10.496717 11.192283 10.481554 11.208984 10.464844 L 11.445312 10.228516 L 12.900391 8.7734375 L 14.355469 10.228516 L 14.591797 10.464844 C 14.608592 10.481648 14.627601 10.496664 14.646484 10.509766 C 14.649177 10.511635 14.651568 10.513831 14.654297 10.515625 C 14.670601 10.526362 14.687654 10.534919 14.705078 10.542969 C 14.725512 10.552409 14.74608 10.558706 14.767578 10.564453 C 14.788855 10.570141 14.810213 10.574098 14.832031 10.576172 C 14.844564 10.577363 14.856558 10.580078 14.869141 10.580078 C 14.879101 10.580078 14.888677 10.577055 14.898438 10.576172 C 14.901124 10.57598 14.903567 10.576418 14.90625 10.576172 C 14.92843 10.574136 14.951018 10.570199 14.972656 10.564453 C 14.991577 10.559429 15.009221 10.552795 15.027344 10.544922 C 15.030642 10.543489 15.033844 10.542543 15.037109 10.541016 C 15.037623 10.540777 15.03855 10.541257 15.039062 10.541016 C 15.063495 10.529441 15.087359 10.514953 15.109375 10.498047 C 15.110797 10.496958 15.111872 10.495252 15.113281 10.494141 C 15.124924 10.484929 15.137699 10.47558 15.148438 10.464844 L 15.154297 10.457031 L 15.384766 10.228516 L 15.390625 10.220703 C 15.543353 10.067988 15.543353 9.8187596 15.390625 9.6660156 L 15.181641 9.4570312 C 15.177291 9.4517185 15.172844 9.4463231 15.167969 9.4414062 C 15.163999 9.4370762 15.16045 9.4319344 15.15625 9.4277344 L 15.154297 9.4277344 L 13.701172 7.9726562 L 15.154297 6.5175781 C 15.163797 6.5080781 15.173291 6.5004944 15.181641 6.4902344 L 15.390625 6.28125 C 15.543353 6.128536 15.543353 5.8793375 15.390625 5.7265625 L 15.384766 5.71875 L 15.154297 5.4882812 L 15.148438 5.4824219 C 14.995743 5.3296761 14.744493 5.3297359 14.591797 5.4824219 L 12.900391 7.1738281 L 11.208984 5.4824219 C 11.132636 5.4060789 11.032263 5.367195 10.931641 5.3671875 z " />
</svg>
