<?xml version="1.0" encoding="UTF-8" standalone="no"?>
<!-- Generator: Gravit.io -->

<svg
   style="isolation:isolate"
   viewBox="0 0 32 32"
   width="32pt"
   height="32pt"
   version="1.1"
   id="svg2"
   sodipodi:docname="bookmark.svg"
   inkscape:version="1.3.2 (091e20ef0f, 2023-11-25, custom)"
   xmlns:inkscape="http://www.inkscape.org/namespaces/inkscape"
   xmlns:sodipodi="http://sodipodi.sourceforge.net/DTD/sodipodi-0.dtd"
   xmlns:xlink="http://www.w3.org/1999/xlink"
   xmlns="http://www.w3.org/2000/svg"
   xmlns:svg="http://www.w3.org/2000/svg">
  <defs
     id="defs2">
    <linearGradient
       id="linearGradient4"
       x1="0.60932404"
       y1="0.056346443"
       x2="0.60908371"
       y2="0.94729209"
       gradientTransform="matrix(33.532619,8.9850382,-9.0442648,33.753656,2.3620125,-4.6039072)"
       gradientUnits="userSpaceOnUse">
      <stop
         offset="0.01666667"
         stop-opacity="1"
         style="stop-color:#54ff64;stop-opacity:1;"
         id="stop3" />
      <stop
         offset="0.90797335"
         stop-opacity="1"
         style="stop-color:#e5f230;stop-opacity:1;"
         id="stop4" />
    </linearGradient>
    <linearGradient
       id="paint0_linear"
       x1="64"
       y1="120"
       x2="64"
       y2="8"
       gradientUnits="userSpaceOnUse"
       gradientTransform="matrix(0.2142854,0,0,0.2142854,2.646679,2.6273522)">
      <stop
         stop-color="#e5f230"
         id="stop1-3" />
      <stop
         offset="1"
         stop-color="#54d863"
         id="stop2-6" />
    </linearGradient>
    <linearGradient
       inkscape:collect="always"
       xlink:href="#linearGradient4"
       id="linearGradient3"
       gradientUnits="userSpaceOnUse"
       gradientTransform="matrix(-33.482941,8.9717269,9.0308658,33.70365,29.593592,-4.5248215)"
       x1="0.42218834"
       y1="0.055694018"
       x2="0.64299035"
       y2="0.87872148" />
  </defs>
  <sodipodi:namedview
     id="namedview2"
     pagecolor="#ffffff"
     bordercolor="#666666"
     borderopacity="1.0"
     inkscape:showpageshadow="2"
     inkscape:pageopacity="0.0"
     inkscape:pagecheckerboard="0"
     inkscape:deskcolor="#d1d1d1"
     inkscape:document-units="pt"
     showgrid="true"
     inkscape:zoom="11.313709"
     inkscape:cx="11.22532"
     inkscape:cy="18.207999"
     inkscape:current-layer="svg2">
    <inkscape:grid
       id="grid2"
       units="px"
       originx="0"
       originy="0"
       spacingx="0.375"
       spacingy="0.375"
       empcolor="#0099e5"
       empopacity="0.30196078"
       color="#0099e5"
       opacity="0.14901961"
       empspacing="5"
       dotted="false"
       gridanglex="30"
       gridanglez="30"
       visible="true" />
  </sodipodi:namedview>
  <linearGradient
     id="_lgradient_16"
     x1="0.60932404"
     y1="0.056346443"
     x2="0.60908371"
     y2="0.94729209"
     gradientTransform="matrix(33.532619,8.9850382,-9.0442648,33.753656,2.3620125,-4.6039072)"
     gradientUnits="userSpaceOnUse">
    <stop
       offset="0.01666667"
       stop-opacity="1"
       style="stop-color:#54ff64;stop-opacity:1;"
       id="stop1" />
    <stop
       offset="0.84583336"
       stop-opacity="1"
       style="stop-color:#e5f230;stop-opacity:1;"
       id="stop2" />
  </linearGradient>
  <path
     d="m 14.59156,8.586689 v 0 c -0.419283,0.8049948 -1.419454,1.1213588 -2.232371,0.7060804 v 0 C 11.54559,8.877308 11.226993,7.8826137 11.646685,7.0733567 v 0 l 2.269572,-4.4142958 c 1.038823,-2.02119486 2.812092,-2.06337412 3.956989,-0.093873 l 4.095014,7.0435806 7.868214,1.4452305 c 2.246109,0.4124 2.839602,2.124859 1.324713,3.821033 l -5.161652,5.778617 0.808091,7.440863 c 0.245297,2.260352 -1.246357,3.336863 -3.329749,2.401919 l -7.398759,-3.32025 -7.4483836,3.366907 C 6.5540689,31.482519 5.1277766,30.41835 5.4471652,28.168679 L 6.5209304,20.608353 0.86474086,14.468914 C -0.67993121,12.791581 -0.09945281,11.177285 2.1612309,10.865692 l 6.2228353,-0.85656 v 0 c 0.9040271,-0.1242661 1.7410528,0.504406 1.8690168,1.404299 v 0 c 0.127281,0.899713 -0.5022166,1.732173 -1.4064242,1.857119 v 0 l -4.0839521,0.567708 5.2511283,5.694277 -1.0282365,7.226427 7.0855415,-3.198908 7.273947,3.261305 -0.791589,-7.278331 4.97714,-5.562833 -7.659409,-1.404584 -3.894798,-6.6948389 z"
     fill="url(#_lgradient_16)"
     id="path2"
     style="display:none;fill:url(#_lgradient_16);stroke-width:0.705581" />
  <path
     fill-rule="evenodd"
     clip-rule="evenodd"
     d="m 14.760362,5.5783193 c 0.51752,-1.6489113 2.683646,-1.6489113 3.201166,0 l 2.058812,6.5596187 h 6.647947 c 1.652569,0 2.322426,2.291161 0.967499,3.310174 l -1.360499,1.023234 c -0.615856,0.463306 -1.495498,0.307628 -1.915068,-0.338957 l -0.471643,-0.726963 c -0.114749,-0.176807 -0.07307,-0.412285 0.09538,-0.538971 v 0 h -4.56985 c -0.724649,0 -1.368599,-0.497549 -1.600583,-1.236683 l -1.452578,-4.628115 -1.452577,4.628115 c -0.231984,0.739134 -0.875934,1.236683 -1.600583,1.236683 H 8.737934 l 3.639338,2.737304 c 0.615492,0.462942 0.873385,1.307676 0.633042,2.073511 l -1.414541,4.506979 3.797609,-2.856446 c 0.581164,-0.437099 1.353962,-0.437099 1.935126,0 l 3.797608,2.856446 -1.150541,-3.665845 c -0.204385,-0.651256 0.139843,-1.348027 0.781285,-1.581405 v 0 c 0.683399,-0.248635 1.436119,0.123236 1.653876,0.817092 l 1.938983,6.177869 c 0.522213,1.663498 -1.231241,3.079068 -2.568125,2.07364 L 16.360945,23.928435 10.940296,28.0056 C 9.603412,29.011028 7.850064,27.595458 8.372128,25.93196 l 2.03449,-6.482047 -5.320535,-4.001801 C 3.731279,14.429099 4.400991,12.137938 6.053645,12.137938 h 6.647905 z"
     fill="url(#paint0_linear)"
     id="path1"
     style="display:none;fill:url(#paint0_linear);stroke-width:0.214285" />
  <path
     id="path3"
     style="display:inline;fill:url(#linearGradient3);stroke-width:0.704536"
     d="m 15.96045,1.1400287 c -0.674527,-0.00645 -1.335851,0.4850415 -1.854493,1.4941407 L 10.016114,9.6668842 2.1601563,11.109756 c -2.24277907,0.411788 -2.83539697,2.122258 -1.32275383,3.815917 l 5.15332023,5.77002 -0.8071289,7.429688 c -0.2449333,2.257001 1.244892,3.331507 3.3251953,2.397949 L 16,27.208388 23.489746,30.52333 c 2.080303,0.933558 3.57013,-0.140948 3.325196,-2.397949 l -0.807129,-7.429688 5.154785,-5.77002 c 1.512642,-1.693659 0.920026,-3.404129 -1.322754,-3.815917 L 21.982422,9.6668842 17.894043,2.6341694 C 17.365271,1.6053594 16.688179,1.1180138 16,1.1444233 15.98674,1.1439122 15.9737,1.1401533 15.96045,1.1400333 Z M 16,5.9447162 l 3.88916,6.6840818 7.64795,1.403321 -4.970215,5.554687 0.791015,7.26709 L 16,23.597548 8.6420899,26.853896 9.4316407,19.586806 4.4628907,14.032119 12.11084,12.628798 Z" />
  <path
     d="m 13.916257,2.6590609 c 1.038823,-2.02119486 2.812092,-2.06337412 3.956989,-0.093873 l 4.095014,7.0435806 7.868214,1.4452305 c 2.246109,0.4124 2.839602,2.124859 1.324713,3.821033 l -5.161652,5.778617 0.808091,7.440863 c 0.245297,2.260352 -1.246357,3.336863 -3.329749,2.401919 l -7.398759,-3.32025 -0.008,-3.616127 7.273947,3.261305 -0.791589,-7.278331 4.97714,-5.562833 -7.659409,-1.404584 -3.894798,-6.6948389 C 15.177537,7.4417416 6.6496437,16.792554 13.916257,2.6590609 Z"
     fill="url(#_lgradient_16)"
     id="path4"
     style="display:none;fill:url(#_lgradient_16);stroke-width:0.705581"
     sodipodi:nodetypes="cccccccccccccccc" />
</svg>
