<?xml version="1.0" encoding="UTF-8" standalone="no"?>
<svg
   width="16"
   height="16"
   viewBox="0 0 16 16"
   fill="none"
   version="1.1"
   id="svg11"
   sodipodi:docname="bookmark.svg"
   inkscape:version="1.1.2 (0a00cf5339, 2022-02-04)"
   xmlns:inkscape="http://www.inkscape.org/namespaces/inkscape"
   xmlns:sodipodi="http://sodipodi.sourceforge.net/DTD/sodipodi-0.dtd"
   xmlns="http://www.w3.org/2000/svg"
   xmlns:svg="http://www.w3.org/2000/svg">
  <sodipodi:namedview
     id="namedview13"
     pagecolor="#ffffff"
     bordercolor="#666666"
     borderopacity="1.0"
     inkscape:pageshadow="2"
     inkscape:pageopacity="0.0"
     inkscape:pagecheckerboard="0"
     showgrid="true"
     inkscape:zoom="32"
     inkscape:cx="4.953125"
     inkscape:cy="6.78125"
     inkscape:current-layer="svg11">
    <inkscape:grid
       type="xygrid"
       id="grid988" />
  </sodipodi:namedview>
  <path
     d="M 3.5357162,0.74999989 C 3.2398509,0.74999989 3,0.98584751 3,1.2767747 V 14.722702 c 0,0.372429 0.3822335,0.627178 0.7340276,0.489373 l 4.0676716,-1.593916 c 0.1273398,-0.04994 0.2692938,-0.04994 0.3966337,0 l 4.0676281,1.593916 C 12.617821,15.34988 13,15.095131 13,14.722702 V 1.2767747 C 13,0.98584751 12.760213,0.74999989 12.464284,0.74999989 H 4.250008 Z M 4.250008,2.5059194 c 0,-0.2909378 0.2398402,-0.5267748 0.5357163,-0.5267748 H 11.21435 c 0.295823,0 0.535717,0.235837 0.535717,0.5267748 V 12.996356 c 0,0.371902 -0.381323,0.62665 -0.732967,0.489794 L 8.1972614,12.388141 c -0.1267076,-0.04941 -0.2677724,-0.04941 -0.39448,0 L 4.9829642,13.48615 C 4.6313201,13.623006 4.250008,13.368258 4.250008,12.996356 v -2.413261 z"
     fill="url(#paint0_linear)"
     id="path2"
     style="fill:url(#paint0_linear);stroke-width:1.06246" />
  <defs
     id="defs9">
    <linearGradient
       id="paint0_linear"
       x1="7.5"
       y1="14"
       x2="7.5"
       y2="1"
       gradientUnits="userSpaceOnUse"
       gradientTransform="matrix(1.0714324,0,0,1.0535496,-0.2142972,-0.30354969)">
      <stop
         stop-color="#e5f230"
         id="stop4" />
      <stop
         offset="1"
         stop-color="#54d863"
         id="stop6" />
    </linearGradient>
  </defs>
</svg>
