<?xml version="1.0" encoding="UTF-8" standalone="no"?>
<!-- Generator: Gravit.io -->

<svg
   style="isolation:isolate"
   viewBox="0 0 32 32"
   width="32pt"
   height="32pt"
   version="1.1"
   id="svg2"
   sodipodi:docname="favorites.svg"
   inkscape:version="1.3 (0e150ed6c4, 2023-07-21)"
   xmlns:inkscape="http://www.inkscape.org/namespaces/inkscape"
   xmlns:sodipodi="http://sodipodi.sourceforge.net/DTD/sodipodi-0.dtd"
   xmlns="http://www.w3.org/2000/svg"
   xmlns:svg="http://www.w3.org/2000/svg">
  <defs
     id="defs2" />
  <sodipodi:namedview
     id="namedview2"
     pagecolor="#ffffff"
     bordercolor="#666666"
     borderopacity="1.0"
     inkscape:showpageshadow="2"
     inkscape:pageopacity="0.0"
     inkscape:pagecheckerboard="0"
     inkscape:deskcolor="#d1d1d1"
     inkscape:document-units="pt"
     showgrid="true"
     inkscape:zoom="5.859375"
     inkscape:cx="33.28"
     inkscape:cy="35.328"
     inkscape:current-layer="svg2">
    <inkscape:grid
       id="grid2"
       units="px"
       originx="-2.6666185"
       originy="-2.5182095"
       spacingx="0.375"
       spacingy="0.375"
       empcolor="#0099e5"
       empopacity="0.30196078"
       color="#0099e5"
       opacity="0.14901961"
       empspacing="5"
       dotted="false"
       gridanglex="30"
       gridanglez="30"
       visible="true" />
  </sodipodi:namedview>
  <linearGradient
     id="_lgradient_16"
     x1="0.60932404"
     y1="0.056346443"
     x2="0.60908371"
     y2="0.94729209"
     gradientTransform="matrix(35.692407,0,0,35.92768,-2.1941582,-2.0243969)"
     gradientUnits="userSpaceOnUse">
    <stop
       offset="0.01666667"
       stop-opacity="1"
       style="stop-color:#54ff64;stop-opacity:1;"
       id="stop1" />
    <stop
       offset="0.84583336"
       stop-opacity="1"
       style="stop-color:#e5f230;stop-opacity:1;"
       id="stop2" />
  </linearGradient>
  <path
     d="m 13.461133,7.820964 v 0 C 13.258951,8.7319818 12.349859,9.3123128 11.43204,9.1162158 v 0 C 10.513494,8.9201188 9.9324021,8.0170608 10.133856,7.1017013 v 0 L 11.21313,2.1138964 c 0.493819,-2.28369536 2.24364,-2.79745446 3.904733,-1.14618926 l 5.941098,5.90533516 8.198555,-0.65848 c 2.340367,-0.1881371 3.385458,1.3545874 2.332366,3.4421855 l -3.588368,7.1123082 2.78255,7.174537 c 0.845091,2.179496 -0.349819,3.645519 -2.66764,3.271415 l -8.231283,-1.328537 -6.501099,5.325728 c -1.812366,1.48556 -3.5120039,0.808266 -3.7934589,-1.510886 L 8.6451271,21.90737 1.3942098,17.315377 c -1.9803661,-1.25473 -1.8334568,-3.012365 0.3287277,-3.923383 l 5.9520071,-2.506565 v 0 c 0.8647275,-0.363973 1.8632745,0.03763 2.2298205,0.897269 v 0 c 0.3658189,0.859642 -0.03782,1.853874 -0.902546,2.218571 v 0 l -3.9047322,1.650542 6.7301901,4.257688 0.901819,7.45023 6.185462,-5.062336 8.091646,1.303212 -2.722912,-7.017516 3.462549,-6.8489152 -7.980373,0.6432842 -5.649461,-5.6122752 z"
     fill="url(#_lgradient_16)"
     id="path2"
     style="fill:url(#_lgradient_16);stroke-width:0.725436" />
</svg>
