<?xml version="1.0" encoding="UTF-8" standalone="no"?>
<svg
   width="32"
   height="31.999998"
   viewBox="0 0 32 31.999998"
   fill="none"
   version="1.1"
   id="svg2"
   sodipodi:docname="extensions-purple.svg"
   inkscape:version="1.3.2 (091e20ef0f, 2023-11-25, custom)"
   xmlns:inkscape="http://www.inkscape.org/namespaces/inkscape"
   xmlns:sodipodi="http://sodipodi.sourceforge.net/DTD/sodipodi-0.dtd"
   xmlns:xlink="http://www.w3.org/1999/xlink"
   xmlns="http://www.w3.org/2000/svg"
   xmlns:svg="http://www.w3.org/2000/svg">
  <sodipodi:namedview
     id="namedview2"
     pagecolor="#ffffff"
     bordercolor="#666666"
     borderopacity="1.0"
     inkscape:showpageshadow="2"
     inkscape:pageopacity="0.0"
     inkscape:pagecheckerboard="0"
     inkscape:deskcolor="#d1d1d1"
     inkscape:zoom="16.506524"
     inkscape:cx="15.569601"
     inkscape:cy="17.689975"
     inkscape:current-layer="svg2" />
  <defs
     id="defs2">
    <linearGradient
       id="linearGradient15"
       x1="12.382254"
       y1="8.1303644"
       x2="12.378265"
       y2="18"
       gradientUnits="userSpaceOnUse"
       gradientTransform="matrix(0,4.4140822,-4.4140822,0,82.339096,9.3437219)"
       spreadMethod="pad">
      <stop
         stop-color="#e5f230"
         offset="0"
         id="stop14" />
      <stop
         offset="1"
         id="stop15"
         style="stop-color:#5ff64f;stop-opacity:1;" />
    </linearGradient>
    <linearGradient
       id="linearGradient13"
       x1="12.382254"
       y1="8.1303644"
       x2="12.378265"
       y2="18"
       gradientUnits="userSpaceOnUse"
       gradientTransform="matrix(0,4.4140822,-4.4140822,0,82.339096,9.3437219)"
       spreadMethod="pad">
      <stop
         stop-color="#e5f230"
         id="stop12" />
      <stop
         offset="1"
         stop-color="#54d863"
         id="stop13"
         style="stop-color:#ff64ff;stop-opacity:1;" />
    </linearGradient>
    <linearGradient
       id="linearGradient11"
       x1="12.382254"
       y1="8.1303644"
       x2="12.378265"
       y2="18"
       gradientUnits="userSpaceOnUse"
       gradientTransform="matrix(0,4.4140822,-4.4140822,0,82.339096,9.3437219)"
       spreadMethod="pad">
      <stop
         stop-color="#e5f230"
         id="stop10" />
      <stop
         offset="1"
         id="stop11"
         style="stop-color:#5ff64f;stop-opacity:1;" />
    </linearGradient>
    <linearGradient
       id="linearGradient9"
       x1="12.382254"
       y1="8.1303644"
       x2="12.378265"
       y2="18"
       gradientUnits="userSpaceOnUse"
       gradientTransform="matrix(0,4.4140822,-4.4140822,0,82.339096,9.3437219)">
      <stop
         stop-color="#e5f230"
         id="stop8" />
      <stop
         offset="1"
         id="stop9"
         style="stop-color:#12ff64;stop-opacity:1;" />
    </linearGradient>
    <linearGradient
       id="linearGradient8"
       x1="12.382254"
       y1="8.1303644"
       x2="12.378265"
       y2="18"
       gradientUnits="userSpaceOnUse"
       gradientTransform="matrix(0,4.4140822,-4.4140822,0,82.339096,9.3437219)">
      <stop
         id="stop5"
         offset="0"
         style="stop-color:#c900ff;stop-opacity:1;" />
      <stop
         offset="1"
         id="stop7"
         style="stop-color:#6444ff;stop-opacity:1;" />
    </linearGradient>
    <linearGradient
       id="paint0_linear"
       x1="14.5567"
       y1="100.535"
       x2="122"
       y2="64.014648"
       gradientUnits="userSpaceOnUse">
      <stop
         id="stop1"
         offset="0"
         style="stop-color:#e5f230;stop-opacity:1;" />
      <stop
         offset="1"
         id="stop2"
         style="stop-color:#12ff64;stop-opacity:1;" />
    </linearGradient>
    <linearGradient
       id="paint0_linear-5"
       x1="12.382254"
       y1="8.1303644"
       x2="12.378265"
       y2="18"
       gradientUnits="userSpaceOnUse"
       gradientTransform="matrix(0,4.4140822,-4.4140822,0,82.339096,9.3437219)"
       xlink:href="#linearGradient15">
      <stop
         stop-color="#e5f230"
         id="stop4" />
      <stop
         offset="1"
         id="stop6"
         style="stop-color:#12ff64;stop-opacity:1;" />
    </linearGradient>
    <linearGradient
       id="_lgradient_2"
       x1="0.12643236"
       y1="1"
       x2="0.99997437"
       y2="0.5"
       gradientTransform="matrix(39.009,0,0,44,4.496,2)"
       gradientUnits="userSpaceOnUse"
       spreadMethod="pad">
      <stop
         offset="0"
         stop-opacity="1"
         style="stop-color:#e5f230;stop-opacity:1;"
         id="stop1-2" />
      <stop
         offset="1"
         stop-opacity="1"
         style="stop-color:#12ff64;stop-opacity:1;"
         id="stop3" />
    </linearGradient>
    <linearGradient
       inkscape:collect="always"
       xlink:href="#linearGradient8"
       id="linearGradient3"
       gradientUnits="userSpaceOnUse"
       gradientTransform="matrix(40.499766,0,0,44.999997,11.750118,-29.431033)"
       x1="0.10493597"
       y1="1.3651341"
       x2="0.49999997"
       y2="0.82411849" />
  </defs>
  <path
     id="path3"
     style="display:inline;isolation:isolate;fill:url(#linearGradient3);stroke-width:0.948679"
     d="M 3.1992188 0 C 2.3505051 0 1.5376125 0.3373792 0.9375 0.9375 C 0.3373792 1.5376158 1.4802959e-16 2.3505302 0 3.1992188 L 0 11.199219 C 0 12.047963 0.3373792 12.862808 0.9375 13.462891 C 1.5376125 14.063029 2.3505051 14.400391 3.1992188 14.400391 L 11.199219 14.400391 C 12.047963 14.400391 12.862836 14.063029 13.462891 13.462891 C 14.063081 12.862808 14.400391 12.047963 14.400391 11.199219 L 14.400391 3.1992188 C 14.400391 2.3505302 14.063081 1.5376158 13.462891 0.9375 C 12.862836 0.3373792 12.047963 0 11.199219 0 L 3.1992188 0 z M 3.1992188 3.1992188 L 11.199219 3.1992188 L 11.199219 11.199219 L 3.1992188 11.199219 L 3.1992188 3.1992188 z M 18.873047 6.0683594 C 18.171052 6.0683594 17.599609 6.7024237 17.599609 7.4824219 L 17.599609 7.6542969 C 17.599609 8.4342961 18.171052 9.0683594 18.873047 9.0683594 L 30.726562 9.0683594 C 31.428559 9.0683594 32 8.4342961 32 7.6542969 L 32 7.4824219 C 32 6.7024237 31.428559 6.0683594 30.726562 6.0683594 L 18.873047 6.0683594 z M 20.800781 17.599609 C 19.952087 17.599609 19.137216 17.936972 18.537109 18.537109 C 17.936966 19.137219 17.599609 19.952064 17.599609 20.800781 L 17.599609 28.800781 C 17.599609 29.649331 17.936966 30.462501 18.537109 31.0625 C 19.137216 31.662775 19.952087 32 20.800781 32 L 28.800781 32 C 29.649613 32 30.462501 31.662775 31.0625 31.0625 C 31.662499 30.462501 32 29.649331 32 28.800781 L 32 20.800781 C 32 19.952064 31.662499 19.137219 31.0625 18.537109 C 30.462501 17.936972 29.649613 17.599609 28.800781 17.599609 L 20.800781 17.599609 z M 20.800781 20.800781 L 28.800781 20.800781 L 28.800781 28.800781 L 20.800781 28.800781 L 20.800781 20.800781 z M 1.2734375 23.724609 C 0.5714359 23.724609 0 24.365333 0 25.154297 L 0 25.328125 C 0 26.117088 0.5714359 26.757812 1.2734375 26.757812 L 13.126953 26.757812 C 13.828955 26.757812 14.400391 26.117088 14.400391 25.328125 L 14.400391 25.154297 C 14.400391 24.365333 13.828955 23.724609 13.126953 23.724609 L 1.2734375 23.724609 z " />
</svg>
