<?xml version="1.0" encoding="UTF-8" standalone="no"?>
<svg
   width="32"
   height="32"
   viewBox="0 0 32.000001 32"
   fill="none"
   version="1.1"
   id="svg14133"
   sodipodi:docname="favorites.svg"
   inkscape:version="1.3.2 (091e20ef0f, 2023-11-25, custom)"
   xmlns:inkscape="http://www.inkscape.org/namespaces/inkscape"
   xmlns:sodipodi="http://sodipodi.sourceforge.net/DTD/sodipodi-0.dtd"
   xmlns="http://www.w3.org/2000/svg"
   xmlns:svg="http://www.w3.org/2000/svg">
  <sodipodi:namedview
     id="namedview14135"
     pagecolor="#ffffff"
     bordercolor="#666666"
     borderopacity="1.0"
     inkscape:showpageshadow="2"
     inkscape:pageopacity="0.0"
     inkscape:pagecheckerboard="0"
     inkscape:deskcolor="#d1d1d1"
     showgrid="false"
     inkscape:zoom="10.429825"
     inkscape:cx="14.190075"
     inkscape:cy="17.402018"
     inkscape:current-layer="svg14133" />
  <path
     d="M 6.3122265,0 C 5.6701803,0 5.149689,0.5204913 5.149689,1.1625375 V 30.836306 c 0,0.821914 0.8294705,1.384117 1.5928856,1.079998 l 8.8271004,-3.517606 c 0.276335,-0.110209 0.584384,-0.110209 0.86072,0 l 8.827007,3.517606 c 0.763555,0.304119 1.592909,-0.258084 1.592909,-1.079998 V 1.1625375 C 26.850311,0.5204913 26.329959,0 25.687773,0 H 7.8622842 Z m 1.5500577,3.8751326 c 0,-0.6420694 0.520468,-1.1625374 1.1625374,-1.1625374 H 22.975341 c 0.641953,0 1.162537,0.520468 1.162537,1.1625374 V 27.026439 c 0,0.820751 -0.827494,1.382954 -1.590583,1.080927 l -6.119226,-2.423193 c -0.274963,-0.109046 -0.581082,-0.109046 -0.856046,0 L 9.4528447,28.107366 C 8.6897551,28.409393 7.8622842,27.84719 7.8622842,27.026439 v -5.325817 z"
     fill="url(#paint0_linear)"
     id="path14124"
     style="fill:url(#paint0_linear);stroke-width:2.32507" />
  <defs
     id="defs14131">
    <linearGradient
       id="paint0_linear"
       x1="7.6666498"
       y1="14.762998"
       x2="7.6666498"
       y2="1"
       gradientUnits="userSpaceOnUse"
       gradientTransform="matrix(2.3250749,0,0,2.3250749,-1.8255358,-2.3250749)">
      <stop
         stop-color="#b900ff"
         id="stop14126"
         offset="0"
         style="stop-color:#c900ff;stop-opacity:1;" />
      <stop
         offset="1"
         stop-color="#6033ff"
         id="stop14128"
         style="stop-color:#6033ff;stop-opacity:1;" />
    </linearGradient>
  </defs>
</svg>
