<?xml version="1.0" encoding="UTF-8" standalone="no"?>
<svg
   width="32"
   height="32"
   viewBox="0 0 32 32"
   fill="none"
   version="1.1"
   id="svg11"
   sodipodi:docname="go-previous.svg"
   inkscape:version="1.3 (0e150ed6c4, 2023-07-21)"
   xmlns:inkscape="http://www.inkscape.org/namespaces/inkscape"
   xmlns:sodipodi="http://sodipodi.sourceforge.net/DTD/sodipodi-0.dtd"
   xmlns="http://www.w3.org/2000/svg"
   xmlns:svg="http://www.w3.org/2000/svg">
  <sodipodi:namedview
     id="namedview13"
     pagecolor="#ffffff"
     bordercolor="#666666"
     borderopacity="1.0"
     inkscape:pageshadow="2"
     inkscape:pageopacity="0.0"
     inkscape:pagecheckerboard="0"
     showgrid="true"
     gridtolerance="4.8"
     inkscape:zoom="11.313709"
     inkscape:cx="5.8336307"
     inkscape:cy="21.964503"
     inkscape:current-layer="svg11"
     inkscape:showpageshadow="2"
     inkscape:deskcolor="#d1d1d1">
    <inkscape:grid
       type="xygrid"
       id="grid1244"
       spacingx="0.5"
       spacingy="0.5"
       originx="-6"
       originy="-0.74999994"
       units="px"
       visible="true" />
  </sodipodi:namedview>
  <defs
     id="defs9">
    <linearGradient
       id="paint0_linear"
       x1="12.389434"
       y1="7.2545543"
       x2="12.378265"
       y2="18"
       gradientUnits="userSpaceOnUse"
       gradientTransform="matrix(0,-1.7053305,1.6059678,0,-4.2839576,37.115835)">
      <stop
         stop-color="#e5f230"
         id="stop4" />
      <stop
         offset="1"
         stop-color="#54d863"
         id="stop6" />
    </linearGradient>
  </defs>
  <rect
     style="fill:#000000;fill-opacity:0"
     id="rect1"
     width="32"
     height="32"
     x="0"
     y="0" />
  <path
     d="M 24.032785,0.62619746 C 23.846331,0.42769696 23.624869,0.27012426 23.380922,0.16268845 23.136976,0.05525265 22.875525,0 22.611503,0 22.347482,0 22.08603,0.0552528 21.842084,0.16268845 21.598298,0.27012456 21.376675,0.42769696 21.190223,0.62619746 L 7.8446477,14.797494 c -0.1488732,0.157743 -0.2669923,0.345159 -0.3475794,0.551505 -0.080588,0.206174 -0.1220682,0.427355 -0.1220682,0.650754 0,0.223398 0.041483,0.444408 0.1220682,0.650754 0.080588,0.206345 0.1987062,0.39376 0.3475794,0.551504 l 13.3455753,14.17128 c 0.786923,0.835612 2.055638,0.835612 2.842562,0 0.786924,-0.835613 0.786924,-2.182823 0,-3.018435 L 12.40558,15.991226 24.048844,3.6275794 c 0.770865,-0.8185588 0.770865,-2.1828232 -0.01607,-3.00138194 z"
     fill="url(#paint0_linear)"
     id="path2"
     style="fill:url(#paint0_linear);stroke-width:1.65491" />
</svg>
