<?xml version="1.0" encoding="UTF-8" standalone="no"?>
<svg
   width="24"
   height="24"
   viewBox="0 0 24 24"
   fill="none"
   version="1.1"
   id="svg11"
   sodipodi:docname="go-up.svg"
   inkscape:version="1.1.2 (0a00cf5339, 2022-02-04)"
   xmlns:inkscape="http://www.inkscape.org/namespaces/inkscape"
   xmlns:sodipodi="http://sodipodi.sourceforge.net/DTD/sodipodi-0.dtd"
   xmlns="http://www.w3.org/2000/svg"
   xmlns:svg="http://www.w3.org/2000/svg">
  <sodipodi:namedview
     id="namedview13"
     pagecolor="#ffffff"
     bordercolor="#666666"
     borderopacity="1.0"
     inkscape:pageshadow="2"
     inkscape:pageopacity="0.0"
     inkscape:pagecheckerboard="0"
     showgrid="true"
     gridtolerance="4.8"
     inkscape:zoom="32"
     inkscape:cx="9.296875"
     inkscape:cy="14.90625"
     inkscape:current-layer="svg11">
    <inkscape:grid
       type="xygrid"
       id="grid1244"
       spacingx="0.5"
       spacingy="0.5" />
  </sodipodi:namedview>
  <path
     d="m 22.575735,17.618175 c 0.13655,-0.128086 0.244945,-0.280221 0.318851,-0.447801 0.0739,-0.167581 0.111914,-0.347187 0.111914,-0.528558 0,-0.181371 -0.03801,-0.360976 -0.111914,-0.528558 -0.07391,-0.167469 -0.182301,-0.319716 -0.318851,-0.447801 L 12.827211,6.4976289 C 12.718698,6.3953596 12.589774,6.314217 12.447828,6.2588569 c -0.141829,-0.05536 -0.293981,-0.083856 -0.447658,-0.083856 -0.153677,0 -0.305712,0.028497 -0.447658,0.083856 -0.141946,0.05536 -0.27087,0.1365027 -0.379383,0.238772 L 1.424617,15.665457 c -0.57482269,0.540583 -0.57482269,1.412135 0,1.952718 0.5748227,0.540582 1.5015777,0.540582 2.0764004,0 l 8.5050186,-7.9873847 8.50503,7.9984167 c 0.563091,0.52955 1.501577,0.52955 2.064669,-0.01104 z"
     fill="url(#paint0_linear)"
     id="path2"
     style="fill:url(#paint0_linear);stroke-width:1.13763" />
  <defs
     id="defs9">
    <linearGradient
       id="paint0_linear"
       x1="12.389434"
       y1="7.2545543"
       x2="12.378265"
       y2="18"
       gradientUnits="userSpaceOnUse"
       gradientTransform="matrix(1.1731076,0,0,1.1032298,-2.5257171,-1.8341947)">
      <stop
         stop-color="#e5f230"
         id="stop4" />
      <stop
         offset="1"
         stop-color="#54d863"
         id="stop6" />
    </linearGradient>
  </defs>
</svg>
