<?xml version="1.0" encoding="UTF-8" standalone="no"?>
<!-- Generator: Gravit.io -->

<svg
   style="isolation:isolate"
   viewBox="0 0 32 32"
   width="32pt"
   height="32pt"
   version="1.1"
   id="svg3"
   sodipodi:docname="history.svg"
   inkscape:version="1.3.2 (091e20ef0f, 2023-11-25, custom)"
   xmlns:inkscape="http://www.inkscape.org/namespaces/inkscape"
   xmlns:sodipodi="http://sodipodi.sourceforge.net/DTD/sodipodi-0.dtd"
   xmlns:xlink="http://www.w3.org/1999/xlink"
   xmlns="http://www.w3.org/2000/svg"
   xmlns:svg="http://www.w3.org/2000/svg">
  <defs
     id="defs3">
    <linearGradient
       id="linearGradient1"
       inkscape:collect="always">
      <stop
         style="stop-color:#c900ff;stop-opacity:1;"
         offset="0"
         id="stop4" />
      <stop
         style="stop-color:#6444ff;stop-opacity:1;"
         offset="1"
         id="stop5" />
    </linearGradient>
    <linearGradient
       inkscape:collect="always"
       xlink:href="#linearGradient1"
       id="linearGradient5"
       x1="127.3656"
       y1="511.50043"
       x2="511.5004"
       y2="255.99998"
       gradientUnits="userSpaceOnUse"
       gradientTransform="matrix(0.0626222,0,0,0.0626222,-0.03128398,-0.03128247)" />
  </defs>
  <sodipodi:namedview
     id="namedview3"
     pagecolor="#ffffff"
     bordercolor="#666666"
     borderopacity="1.0"
     inkscape:showpageshadow="2"
     inkscape:pageopacity="0.0"
     inkscape:pagecheckerboard="0"
     inkscape:deskcolor="#d1d1d1"
     inkscape:document-units="pt"
     inkscape:zoom="0.86075062"
     inkscape:cx="407.78362"
     inkscape:cy="340.40057"
     inkscape:current-layer="svg3" />
  <linearGradient
     id="_lgradient_1"
     x1="0.031773508"
     y1="0.061393134"
     x2="0.95571214"
     y2="0.97312111"
     gradientTransform="matrix(511,0,0,511,0.5,0.5)"
     gradientUnits="userSpaceOnUse">
    <stop
       offset="2.1739130434782608%"
       stop-opacity="1"
       style="stop-color:rgb(91,100,237)"
       id="stop1" />
    <stop
       offset="51.66666666666667%"
       stop-opacity="1"
       style="stop-color:rgb(198,116,251)"
       id="stop2" />
    <stop
       offset="98.33333333333333%"
       stop-opacity="1"
       style="stop-color:rgb(249,162,78)"
       id="stop3" />
  </linearGradient>
  <path
     d="M 16.276602,13.879051 19.811,10.344654 c 0.474739,-0.4748035 1.244366,-0.4748035 1.719167,0 0.474802,0.474738 0.474802,1.244365 0,1.719167 v 0 l -3.53446,3.53446 c 0.0051,0.0568 0.0078,0.114347 0.0078,0.172461 0,1.047356 -0.8521,1.899457 -1.899457,1.899457 -0.244728,0 -0.478747,-0.04653 -0.693791,-0.131193 L 9.603427,23.3459 c -0.14829,0.148352 -0.342795,0.222559 -0.537236,0.222559 -0.194442,0 -0.388822,-0.07427 -0.537237,-0.222559 -0.296704,-0.296767 -0.296704,-0.777831 0,-1.074535 l 5.806833,-5.806831 c -0.08466,-0.214982 -0.131194,-0.449064 -0.131194,-0.693792 0,-0.05811 0.0026,-0.115663 0.0078,-0.172461 L 9.066095,10.45205 c -0.474803,-0.4747395 -0.474803,-1.2443655 0,-1.7191675 0.474738,-0.474802 1.244365,-0.474802 1.719167,0 l 5.146167,5.1461685 c 0.05686,-0.0051 0.114411,-0.0078 0.172587,-0.0078 0.05818,0 0.115726,0.0026 0.172586,0.0078 z M 7.290629,16.530537 H 6.150968 c -0.419631,0 -0.759795,-0.340226 -0.759795,-0.759795 0,-0.419569 0.340164,-0.759795 0.759795,-0.759795 h 1.139661 c 0.419631,0 0.759795,0.340226 0.759795,0.759795 0,0.419569 -0.340164,0.759795 -0.759795,0.759795 z m 8.813387,-8.8134495 c -0.419632,0 -0.759796,-0.340226 -0.759796,-0.759795 v -1.139598 c 0,-0.419569 0.340164,-0.759796 0.759796,-0.759796 0.419631,0 0.759795,0.340227 0.759795,0.759796 v 1.139661 c 0,0.419506 -0.340164,0.759732 -0.759795,0.759732 z m 9.953048,8.8134495 h -1.139662 c -0.419631,0 -0.759795,-0.340226 -0.759795,-0.759795 0,-0.419569 0.340164,-0.759795 0.759795,-0.759795 h 1.139662 c 0.419631,0 0.759795,0.340226 0.759795,0.759795 0,0.419569 -0.340164,0.759795 -0.759795,0.759795 z m -9.953048,9.953049 c -0.419632,0 -0.759796,-0.340227 -0.759796,-0.759795 v -1.139662 c 0,-0.419568 0.340164,-0.759795 0.759796,-0.759795 0.419631,0 0.759795,0.340227 0.759795,0.759795 v 1.139662 c 0,0.419568 -0.340164,0.759795 -0.759795,0.759795 z M 29.090483,14.907433 v 0 c 0.06757,0.798182 0.773071,1.393094 1.574573,1.327653 v 0 c 0.801439,-0.06544 1.39729,-0.769878 1.32972,-1.572068 v 0 C 31.659684,10.64405 29.811891,6.8932935 26.822495,4.1711055 23.833162,1.4561825 19.92253,-0.03585447 15.880017,6.5452889e-4 11.633605,0.03904453 7.569987,1.7630935 4.58892,4.7864945 1.615179,7.8170955 -0.03773398,11.904886 6.5402104e-4,16.144722 0.03910402,20.384559 1.765848,24.441851 4.793945,27.418222 c 3.035361,2.969106 7.129537,4.619452 11.37595,4.581127 v 0 c 0.804006,-0.0073 1.450893,-0.664923 1.443629,-1.467677 v 0 c -0.0073,-0.802754 -0.665987,-1.448576 -1.469931,-1.441312 v 0 C 12.669188,29.12173 9.320716,27.770097 6.836619,25.341545 4.359723,22.905603 2.945588,19.587378 2.914214,16.11842 2.882774,12.649464 4.236482,9.3061895 6.668853,6.8259735 c 2.439699,-2.473076 5.763184,-3.884956 9.237528,-3.91633 3.306827,-0.02987 6.508388,1.184938 8.954223,3.410155 2.445836,2.22528 3.952401,5.2954595 4.229879,8.5876345 z m -6.863957,12.089342 v 0 c -0.708194,0.372288 -0.974339,1.237289 -0.594097,1.930454 v 0 c 0.380305,0.693166 1.26403,0.953736 1.972162,0.58151 v 0 c 3.015634,-1.588287 5.440115,-4.08397 6.905412,-7.113006 v 0 c 0.347241,-0.711451 0.03908,-1.563363 -0.687716,-1.901273 v 0 c -0.726794,-0.337909 -1.598746,-0.03463 -1.945986,0.676758 v 0 c -1.200781,2.484849 -3.177888,4.520259 -5.649775,5.825557 z"
     fill-rule="evenodd"
     id="path3"
     style="fill:url(#linearGradient5);fill-opacity:1;stroke-width:0.0626222" />
</svg>
