<?xml version="1.0" encoding="UTF-8" standalone="no"?>
<svg
   width="32"
   height="32"
   viewBox="0 0 32 32"
   fill="none"
   version="1.1"
   id="svg11"
   sodipodi:docname="history.svg"
   inkscape:version="1.3.2 (091e20ef0f, 2023-11-25, custom)"
   xmlns:inkscape="http://www.inkscape.org/namespaces/inkscape"
   xmlns:sodipodi="http://sodipodi.sourceforge.net/DTD/sodipodi-0.dtd"
   xmlns:xlink="http://www.w3.org/1999/xlink"
   xmlns="http://www.w3.org/2000/svg"
   xmlns:svg="http://www.w3.org/2000/svg">
  <sodipodi:namedview
     id="namedview13"
     pagecolor="#ffffff"
     bordercolor="#666666"
     borderopacity="1.0"
     inkscape:pageshadow="2"
     inkscape:pageopacity="0.0"
     inkscape:pagecheckerboard="0"
     showgrid="true"
     inkscape:zoom="16"
     inkscape:cx="9.90625"
     inkscape:cy="14.9375"
     inkscape:current-layer="svg11"
     inkscape:showpageshadow="2"
     inkscape:deskcolor="#d1d1d1"
     showguides="true" />
  <path
     d="M 16,0 C 7.16344,0 0,7.16344 0,16 0,24.836535 7.16344,32 16,32 24.836535,32 32,24.836535 32,16 32,7.16344 24.836535,0 16,0 Z m 0,2.6666665 c 7.363735,0 13.333335,5.969547 13.333335,13.3333335 0,7.363735 -5.9696,13.333335 -13.333335,13.333335 C 8.6362135,29.333335 2.6666665,23.363735 2.6666665,16 2.6666665,8.6362135 8.6362135,2.6666665 16,2.6666665 Z m -2.666667,2.666667 V 16 18.666666 H 16 26.666665 V 16 H 16 V 5.3333335 Z"
     fill="url(#paint0_linear)"
     id="path2"
     style="display:none;fill:url(#linearGradient2);stroke-width:2.66665" />
  <defs
     id="defs9">
    <linearGradient
       id="paint0_linear"
       x1="4.0275874"
       y1="14.000001"
       x2="12.19252"
       y2="3.7078226"
       gradientUnits="userSpaceOnUse"
       gradientTransform="matrix(1.1666666,0,0,1.1666666,-1.3333334,-1.3333334)">
      <stop
         id="stop4"
         offset="0"
         style="stop-color:#00f1fa;stop-opacity:1;" />
      <stop
         offset="1"
         id="stop6"
         style="stop-color:#006cff;stop-opacity:1;" />
    </linearGradient>
    <linearGradient
       id="_lgradient_19"
       x1="0.09660808"
       y1="0.23223008"
       x2="0.20233724"
       y2="0.04810404"
       gradientTransform="scale(63.999999,63.599999)"
       gradientUnits="userSpaceOnUse">
      <stop
         offset="0"
         stop-opacity="1"
         style="stop-color:#00f1fa;stop-opacity:1;"
         id="stop5" />
      <stop
         offset="1"
         stop-opacity="1"
         style="stop-color:#006cff;stop-opacity:1;"
         id="stop6-6" />
    </linearGradient>
    <linearGradient
       inkscape:collect="always"
       xlink:href="#paint0_linear"
       id="linearGradient1"
       gradientUnits="userSpaceOnUse"
       gradientTransform="matrix(1.1666666,0,0,1.1666666,-1.3333334,-1.3333334)"
       x1="4.0543733"
       y1="13.820014"
       x2="12.2425"
       y2="3.7652149" />
    <linearGradient
       inkscape:collect="always"
       xlink:href="#linearGradient14"
       id="linearGradient4"
       gradientUnits="userSpaceOnUse"
       gradientTransform="matrix(0.01765246,0.01710643,0.01765255,-0.0171065,26.278657,10.811301)"
       x1="61.57159"
       y1="-1177.063"
       x2="-139.44783"
       y2="199.69984" />
    <linearGradient
       id="linearGradient14"
       inkscape:collect="always">
      <stop
         style="stop-color:#00f1fa;stop-opacity:1;"
         offset="0"
         id="stop14" />
      <stop
         style="stop-color:#006cff;stop-opacity:1;"
         offset="1"
         id="stop15" />
    </linearGradient>
    <linearGradient
       inkscape:collect="always"
       xlink:href="#linearGradient1-9"
       id="linearGradient5"
       x1="-56.809521"
       y1="259.75107"
       x2="200.72157"
       y2="-174.81525"
       gradientUnits="userSpaceOnUse"
       gradientTransform="matrix(0.06222061,0,0,0.06262219,14.848879,15.733819)" />
    <linearGradient
       id="linearGradient1-9"
       inkscape:collect="always">
      <stop
         style="stop-color:#00f1fa;stop-opacity:1;"
         offset="0"
         id="stop4-3" />
      <stop
         style="stop-color:#006cff;stop-opacity:1;"
         offset="1"
         id="stop5-3" />
    </linearGradient>
    <linearGradient
       inkscape:collect="always"
       xlink:href="#paint0_linear"
       id="linearGradient2"
       gradientUnits="userSpaceOnUse"
       gradientTransform="matrix(2.6666664,0,0,2.6666664,-5.3333333,-5.3333333)"
       x1="4.0275874"
       y1="14.000001"
       x2="12.19252"
       y2="3.7078226" />
    <linearGradient
       inkscape:collect="always"
       xlink:href="#linearGradient14"
       id="linearGradient3"
       gradientUnits="userSpaceOnUse"
       gradientTransform="matrix(0.00787884,0.00763513,0.00787888,-0.00763516,12.58573,5.5845134)"
       x1="204.40701"
       y1="-1047.2743"
       x2="-139.44783"
       y2="199.69984" />
    <linearGradient
       inkscape:collect="always"
       xlink:href="#paint0_linear"
       id="linearGradient7"
       gradientUnits="userSpaceOnUse"
       gradientTransform="matrix(2.6666664,0,0,2.6666664,-5.3333333,-5.3333333)"
       x1="4.4494624"
       y1="14.000001"
       x2="12.19252"
       y2="3.7078226" />
  </defs>
  <path
     d="M 6.8333332,3.2328413 V 7.8995079 9.0661743 H 8 12.666666 V 7.8995079 H 8 V 3.2328413 Z"
     fill="url(#paint0_linear)"
     id="path1"
     style="display:none;fill:url(#linearGradient1);stroke-width:1.16666"
     sodipodi:nodetypes="ccccccccc" />
  <path
     id="path2-9"
     style="display:none;fill:#000000;fill-opacity:1;stroke:#000000;stroke-width:0.294707;stroke-dasharray:none;stroke-opacity:1"
     d="m 8.1152827,1.1491717 c -0.374764,-0.0066 -0.74989,0.01694 -1.120263,0.07094 -1.988175,0.280098 -3.812027,1.495256 -4.849146,3.211851 -1.32690901,2.130151 -1.33402901,5.007621 0.0052,7.1334173 0.168609,0.244091 0.562871,0.260658 0.763102,0.04648 0.182653,-0.177414 0.177431,-0.472491 0.04044,-0.675324 -0.488256,-0.835863 -0.763096,-1.7947023 -0.789435,-2.7623063 -0.04655,-1.396986 0.437261,-2.802658 1.330356,-3.877389 0.89661,-1.094933 2.204309,-1.845712 3.604986,-2.058204 1.247916,-0.200201 2.557979,0.02808 3.6688783,0.630427 0.20018,0.122922 0.480343,0.120364 0.648989,-0.05612 0.236208,-0.209861 0.196644,-0.63847 -0.07986,-0.79476 -0.97806,-0.557787 -2.0989273,-0.849216 -3.2232193,-0.869013 z m 5.5369883,3.492312 c -0.06596,0.0016 -0.131708,0.01641 -0.19297,0.04605 -0.275698,0.114147 -0.381154,0.476836 -0.229232,0.729717 0.696393,1.401362 0.793934,3.083703 0.258156,4.554439 -0.516327,1.4478963 -1.630731,2.6682823 -3.025212,3.3154593 -1.4963753,0.708623 -3.2994003,0.734095 -4.8107253,0.05612 -0.189681,-0.08944 -0.419758,-0.177361 -0.616468,-0.05439 -0.360044,0.172108 -0.343299,0.759543 0.03079,0.905276 1.124057,0.54005 2.40082,0.749867 3.639953,0.620785 1.6561813,-0.158921 3.2361093,-0.962281 4.3531233,-2.192463 0.86327,-0.941221 1.456015,-2.128458 1.681761,-3.3858253 0.265089,-1.448774 0.0534,-2.983537 -0.610425,-4.299736 -0.08173,-0.186368 -0.280875,-0.300201 -0.478756,-0.295427 z"
     sodipodi:nodetypes="scccccccccccsscccccccccccs" />
  <path
     d="m 6.48625,13.644 v 0 c 0.310625,0.08371 0.494958,0.403958 0.41125,0.714583 v 0 c -0.08371,0.310625 -0.403958,0.494959 -0.714583,0.41125 v 0 C 4.695417,14.37025 3.3800001,13.489417 2.44375,12.267333 1.5075,11.04525 1,9.549 1,8.009 1,6.154 1.7379166,4.371917 3.0504167,3.059417 4.362917,1.746917 6.145,1.009 8,1.009 c 1.855,0 3.637083,0.737917 4.949583,2.050417 C 14.262083,4.371917 15,6.154 15,8.009 c 0,1.534167 -0.504583,3.024584 -1.432083,4.24375 -0.930417,1.219167 -2.234167,2.1 -3.712917,2.508333 v 0 C 9.544375,14.846543 9.222958,14.663373 9.1375,14.35275 v 0 c -0.08546,-0.310625 0.09771,-0.632042 0.408333,-0.7175 v 0 c 1.230834,-0.338333 2.31875,-1.073333 3.094584,-2.088333 C 13.413333,10.529 13.833333,9.2865 13.833333,8.009 c 0,-1.545833 -0.615416,-3.030417 -1.709166,-4.124167 C 11.030417,2.791083 9.545833,2.175667 8,2.175667 6.454167,2.175667 4.969583,2.791083 3.8758333,3.884833 2.7820832,4.978583 2.1666666,6.463167 2.1666666,8.009 c 0,1.283333 0.4229166,2.531667 1.2045835,3.549583 C 4.15,12.5765 5.246667,13.3115 6.48625,13.644 Z"
     fill="url(#_lgradient_19)"
     id="path6"
     style="display:none;isolation:isolate;fill:url(#_lgradient_19);stroke-width:0.291666" />
  <path
     id="path4"
     style="display:none;fill:url(#linearGradient3);fill-opacity:1;fill-rule:evenodd;stroke:none;stroke-width:0.0159881"
     d="M 7.4023438,3.2324219 C 7.085668,3.2324679 6.8257427,3.4801446 6.8261719,3.78125 l 0.00781,5.2851562 H 7.4121094 8 12.130859 c 0.30116,3.42e-5 0.546875,-0.2594483 0.546875,-0.5761718 V 8.4746094 C 12.677688,8.1579333 12.431965,7.9003911 12.130859,7.9003906 H 7.9980469 L 7.9921875,3.78125 C 7.9922215,3.4800903 7.7327393,3.2324219 7.4160156,3.2324219 Z" />
  <path
     d="m 2.9934646,14.907441 v 0 c -0.067223,0.798171 -0.7681167,1.393074 -1.5644855,1.327634 v 0 C 0.63267846,16.169704 0.04065956,15.465201 0.10779206,14.663007 v 0 C 0.44072896,10.644059 2.2766737,6.8932933 5.2468979,4.1710992 8.2170537,1.4561738 12.102627,-0.03584894 16.119195,6.5426762e-4 20.338386,0.03905377 24.37594,1.7630997 27.337898,4.786505 c 2.954668,3.0305825 4.596981,7.118376 4.55885,11.358216 -0.03815,4.239839 -1.753891,8.297118 -4.762565,11.273509 -3.015894,2.969095 -7.083812,4.619449 -11.303004,4.581117 v 0 c -0.798844,-0.0067 -1.441576,-0.664915 -1.434354,-1.467678 v 0 c 0.0068,-0.802743 0.661696,-1.448571 1.460494,-1.441303 v 0 c 3.452119,0.03132 6.779127,-1.320274 9.247289,-3.748824 2.461009,-2.435931 3.866087,-5.75417 3.897248,-9.22313 C 29.033196,12.649453 27.688071,9.3061851 25.271303,6.8259791 22.847247,4.3529052 19.545084,2.9410195 16.093009,2.9096367 12.807381,2.8796937 9.6263583,4.0945737 7.1962137,6.3198075 4.766047,8.5450875 3.2691482,11.615259 2.9934646,14.907441 Z m 6.8199377,12.089326 v 0 c 0.7036407,0.372295 0.9680827,1.237301 0.5902697,1.930467 v 0 c -0.377858,0.693167 -1.2559165,0.953736 -1.9595126,0.581508 v 0 C 5.4478636,27.920445 3.0389313,25.424765 1.5830478,22.395739 v 0 C 1.2380287,21.684287 1.5442129,20.832376 2.2663404,20.494456 v 0 c 0.7221279,-0.33792 1.5884907,-0.03475 1.9335094,0.676756 v 0 c 1.1930769,2.484845 3.1575181,4.520274 5.6135525,5.825555 z"
     fill-rule="evenodd"
     id="path3"
     style="display:none;isolation:isolate;fill:url(#linearGradient5);fill-opacity:1;stroke-width:0.062421"
     sodipodi:nodetypes="sssssscccccsssssscccccssssssssssssss" />
  <path
     id="path5"
     style="fill:url(#linearGradient4);fill-opacity:1;fill-rule:evenodd;stroke:none;stroke-width:0.0358212"
     d="m 14.665331,5.5414636 c -0.709509,1.03e-4 -1.291869,0.5550203 -1.290907,1.229644 l 0.0175,11.8413404 h 1.295289 1.317163 9.255149 c 0.674746,7.7e-5 1.225268,-0.581291 1.225268,-1.290907 v -0.03501 C 26.48469,16.577021 25.93415,16.000001 25.259525,16 H 16 L 15.98687,6.7711056 c 7.6e-5,-0.6747454 -0.581291,-1.229644 -1.290907,-1.229644 z" />
  <path
     d="M 16,0 C 7.16344,0 0,7.16344 0,16 0,24.836535 7.16344,32 16,32 24.836535,32 32,24.836535 32,16 32,7.16344 24.836535,0 16,0 Z m 0,2.6666665 c 7.363735,0 13.333335,5.969547 13.333335,13.3333335 0,7.363735 -5.9696,13.333335 -13.333335,13.333335 C 8.6362135,29.333335 2.6666665,23.363735 2.6666665,16 2.6666665,8.6362135 8.6362135,2.6666665 16,2.6666665 Z"
     fill="url(#paint0_linear)"
     id="path7"
     style="display:inline;fill:url(#linearGradient7);stroke-width:2.66665"
     sodipodi:nodetypes="ssssssssss" />
</svg>
