<?xml version="1.0" encoding="UTF-8" standalone="no"?>
<!-- Generator: Gravit.io -->

<svg
   style="isolation:isolate"
   viewBox="0 0 32 32"
   width="32pt"
   height="32pt"
   version="1.1"
   id="svg11"
   sodipodi:docname="librewolf-logo.svg"
   inkscape:version="1.3 (0e150ed6c4, 2023-07-21)"
   xmlns:inkscape="http://www.inkscape.org/namespaces/inkscape"
   xmlns:sodipodi="http://sodipodi.sourceforge.net/DTD/sodipodi-0.dtd"
   xmlns="http://www.w3.org/2000/svg"
   xmlns:svg="http://www.w3.org/2000/svg">
  <defs
     id="defs15" />
  <sodipodi:namedview
     id="namedview13"
     pagecolor="#ffffff"
     bordercolor="#666666"
     borderopacity="1.0"
     inkscape:showpageshadow="2"
     inkscape:pageopacity="0.0"
     inkscape:pagecheckerboard="0"
     inkscape:deskcolor="#d1d1d1"
     inkscape:document-units="pt"
     showgrid="false"
     inkscape:zoom="7.375"
     inkscape:cx="30.440678"
     inkscape:cy="32.677966"
     inkscape:current-layer="svg11" />
  <linearGradient
     id="linearGradient241"
     x1="0.14958137"
     y1="0.85659254"
     x2="0.94060522"
     y2="0.26236033"
     gradientTransform="matrix(32.000053,0,0,32.000181,-1.7929075e-5,-1.4605405e-4)"
     gradientUnits="userSpaceOnUse">
    <stop
       offset="0"
       stop-opacity="1"
       style="stop-color:#b900ff;stop-opacity:1;"
       id="stop2" />
    <stop
       offset="1"
       stop-opacity="1"
       style="stop-color:#6444ff;stop-opacity:1;"
       id="stop6" />
  </linearGradient>
  <path
     d="m 16.722183,13.226278 -0.734414,0.943286 -1.185263,0.1655 0.737134,-0.943285 z m 1.264824,15.710294 c 0.163883,-0.702185 0.439969,-1.42957 0.800375,-1.840938 0.49369,-0.563247 0.587532,-1.012073 0.597732,-2.840752 0.0075,-1.513343 0.02448,-1.691103 0.218964,-2.369451 0.330486,-1.155099 0.877217,-1.970342 1.277065,-2.555383 0.203324,-0.296947 0.52701,-0.827502 0.720813,-1.178936 0.193804,-0.350753 0.47533,-0.824098 0.625612,-1.050894 0.391008,-0.592534 1.635432,-1.411182 2.04888,-1.605969 0.461729,-0.217262 0.970378,-0.802303 1.139022,-1.310383 0.172723,-0.521702 0.120362,-1.345118 -0.105403,-1.647515 -0.133282,-0.177759 -0.218284,-0.209089 -0.55965,-0.209089 -0.312806,0 -0.448129,-0.04154 -0.603852,-0.187975 -0.213524,-0.200917 -0.370607,-0.173673 -0.370607,0.06402 0,0.186615 -0.690893,0.541453 -0.773855,0.459043 -0.03468,-0.03473 6.8e-4,-0.232246 0.07956,-0.439291 0.290365,-0.758034 0.384887,-1.240914 0.338646,-1.731286 -0.07616,-0.8077524 -0.578691,-2.0432173 -0.852736,-2.0963409 -0.06528,-0.012259 -0.422968,0.2322456 -0.794255,0.5448578 -1.935317,1.6311691 -3.406866,2.3428891 -4.430965,2.9626641 -0.48893,0.295586 -0.49029,0.294905 -1.314465,0.277197 -0.975819,-0.02111 -0.806496,0.13349 -2.434447,1.121726 -0.563731,0.341899 -1.198863,0.995047 -1.411707,1.075414 -0.213524,0.08173 -0.890817,0.199554 -1.515749,0.263575 -1.2831851,0.132127 -1.6265917,0.211132 -2.1066809,0.488328 -0.4746491,0.275153 -0.5950114,0.479475 -0.4943695,0.845892 0.099282,0.358925 0.624932,1.065197 1.2566641,1.687697 l 0.4760089,0.468578 -0.3658468,0.568695 c -0.2026439,0.312612 -0.5079697,0.890842 -0.677293,1.284502 -0.3372865,0.781871 -0.4297682,0.928983 -1.1016211,1.757167 -0.4984496,0.615008 -1.2668643,1.460219 -1.8577956,2.433471 v 0 C 3.961738,21.894286 2.9362783,19.048084 2.9097578,16.093593 2.8798372,12.786305 4.0943405,9.5852656 6.3200232,7.1388537 8.5450258,4.6931231 11.615285,3.1865912 14.907228,2.9093948 v 0 c 0.798335,-0.067426 1.393347,-0.773017 1.328066,-1.5746391 v 0 C 16.169332,0.53313357 15.464839,-0.06280469 14.663103,0.00530254 v 0 C 10.644226,0.3403901 6.8932741,2.1881393 4.171182,5.1773655 1.4558899,8.1665918 -0.03605862,12.07731 6.6209092e-4,16.119473 0.03874279,20.365959 1.7632558,24.429917 4.7865938,27.410971 c 3.030138,2.973561 7.1183772,4.626524 11.3582582,4.588384 4.239881,-0.03882 8.296839,-1.76534 11.273256,-4.793387 2.968937,-3.035539 4.619328,-7.129465 4.581248,-11.37595 v 0 c -0.0075,-0.804347 -0.665053,-1.450684 -1.467468,-1.443874 v 0 c -0.803096,0.0075 -1.449108,0.666089 -1.441628,1.470435 v 0 c 0.03128,3.474151 -1.319905,6.822302 -3.748912,9.306853 -1.993798,2.027552 -4.579208,3.342703 -7.354341,3.77314 z M 27.53711,9.7732416 v 0 c 0.379447,0.7083154 1.262104,0.9746144 1.969318,0.5938954 v 0 c 0.706533,-0.3800384 0.972419,-1.2640708 0.592971,-1.9717049 v 0 C 28.479608,5.379644 25.933639,2.9550267 22.84366,1.4900401 v 0 c -0.725574,-0.3473468 -1.59463,-0.039502 -1.938717,0.687202 v 0 c -0.344767,0.7273852 -0.03536,1.5991577 0.690213,1.9465046 v 0 c 2.534409,1.2007304 4.610489,3.1778832 5.941954,5.6494949 z"
     fill-rule="evenodd"
     fill="url(#linearGradient241)"
     id="path9"
     style="fill:url(#linearGradient241);stroke-width:0.680542" />
</svg>
