<?xml version="1.0" encoding="UTF-8" standalone="no"?>
<svg
   width="32"
   height="32"
   viewBox="0 0 32 32"
   fill="none"
   version="1.1"
   id="svg11"
   sodipodi:docname="pan-down.svg"
   inkscape:version="1.4 (e7c3feb100, 2024-10-09)"
   xmlns:inkscape="http://www.inkscape.org/namespaces/inkscape"
   xmlns:sodipodi="http://sodipodi.sourceforge.net/DTD/sodipodi-0.dtd"
   xmlns="http://www.w3.org/2000/svg"
   xmlns:svg="http://www.w3.org/2000/svg">
  <sodipodi:namedview
     id="namedview13"
     pagecolor="#ffffff"
     bordercolor="#666666"
     borderopacity="1.0"
     inkscape:pageshadow="2"
     inkscape:pageopacity="0.0"
     inkscape:pagecheckerboard="0"
     showgrid="true"
     gridtolerance="4.8"
     inkscape:zoom="22.627417"
     inkscape:cx="16.639106"
     inkscape:cy="16.484427"
     inkscape:current-layer="svg11"
     inkscape:showpageshadow="0"
     inkscape:deskcolor="#505050">
    <inkscape:grid
       type="xygrid"
       id="grid1244"
       spacingx="0.5"
       spacingy="0.5"
       originx="0"
       originy="0"
       units="px" />
  </sodipodi:namedview>
  <path
     d="m 31.373803,7.9783028 c 0.198501,0.1861955 0.356073,0.4073527 0.463509,0.6509623 C 31.94474,8.8728748 32,9.1339653 32,9.397622 c 0,0.2636564 -0.05526,0.5247471 -0.162688,0.768357 -0.107442,0.243449 -0.265008,0.464766 -0.463509,0.650962 l -14.171298,13.32715 c -0.157744,0.148667 -0.345159,0.266623 -0.551504,0.347099 -0.206175,0.08049 -0.427356,0.121906 -0.650754,0.121906 -0.223399,0 -0.44441,-0.04143 -0.650755,-0.121906 -0.206345,-0.08048 -0.39376,-0.198432 -0.551504,-0.347099 L 0.62670849,10.816941 c -0.83561197,-0.785838 -0.83561197,-2.0528004 0,-2.8386382 0.83561201,-0.7858376 2.18282321,-0.7858376 3.01843521,0 L 16.008774,19.589457 28.372421,7.9622653 c 0.818558,-0.7698001 2.182822,-0.7698001 3.001382,0.016037 z"
     fill="url(#paint0_linear)"
     id="path2"
     style="fill:url(#paint0_linear);stroke-width:1.13763" />
  <defs
     id="defs9">
    <linearGradient
       id="paint0_linear"
       x1="12.389434"
       y1="7.2545543"
       x2="12.378265"
       y2="18"
       gradientUnits="userSpaceOnUse"
       gradientTransform="matrix(1.1731076,0,0,-1.1032298,-2.5257172,26.034197)">
      <stop
         stop-color="#e5f230"
         id="stop4" />
      <stop
         offset="1"
         stop-color="#54d863"
         id="stop6" />
    </linearGradient>
  </defs>
</svg>
