<?xml version="1.0" encoding="UTF-8" standalone="no"?>
<svg
   width="32"
   height="32.000038"
   viewBox="0 0 32 32.000038"
   fill="none"
   version="1.1"
   id="svg18"
   sodipodi:docname="preferences-system.svg"
   inkscape:version="1.3.2 (091e20ef0f, 2023-11-25, custom)"
   xmlns:inkscape="http://www.inkscape.org/namespaces/inkscape"
   xmlns:sodipodi="http://sodipodi.sourceforge.net/DTD/sodipodi-0.dtd"
   xmlns="http://www.w3.org/2000/svg"
   xmlns:svg="http://www.w3.org/2000/svg">
  <sodipodi:namedview
     id="namedview20"
     pagecolor="#ffffff"
     bordercolor="#666666"
     borderopacity="1.0"
     inkscape:pageshadow="2"
     inkscape:pageopacity="0.0"
     inkscape:pagecheckerboard="0"
     showgrid="false"
     inkscape:zoom="20.093617"
     inkscape:cx="17.667302"
     inkscape:cy="16.771495"
     inkscape:current-layer="svg18"
     inkscape:showpageshadow="2"
     inkscape:deskcolor="#d1d1d1" />
  <path
     d="m 12.900431,0.04527384 c 1.773489,-0.1088715 3.551693,0.017787 5.329948,-0.019996 1.083356,-0.1355504 2.01841,0.7554884 2.289206,1.68207376 0.362667,0.9843772 0.365247,2.0642761 0.770065,3.0330959 0.704345,0.5532855 1.528603,0.9554753 2.320174,1.3909923 1.040861,-0.3421907 2.048861,-0.7799375 3.120518,-1.035457 0.911485,-0.2333243 2.011356,0.086654 2.489464,0.8865912 0.779528,1.2110113 1.493335,2.4620233 2.185808,3.7219193 0.374366,0.7910347 0.890151,1.7731827 0.280086,2.5797917 -0.74185,1.015474 -1.945291,1.624299 -2.781421,2.559792 -0.193204,0.708824 -0.122667,1.466549 -0.11785,2.195303 0.711227,1.264305 2.378669,1.813182 3.00525,3.148669 0.346323,0.604451 0.235527,1.353326 -0.145893,1.91764 -0.859871,1.413359 -1.709936,2.833236 -2.630883,4.210747 -0.612474,0.899987 -1.936002,1.026572 -2.885164,0.553337 -0.822022,-0.391075 -1.895915,-0.455397 -2.456604,-1.22211 -0.609892,-0.766541 0.136775,-2.008719 1.147184,-1.908721 0.781936,0.07324 1.471829,0.473235 2.192518,0.737726 0.760775,-1.119882 1.432259,-2.290877 2.152948,-3.433056 -1.123614,-1.060019 -2.77454,-1.910951 -3.0314,-3.524135 -0.08,-1.079968 -0.06589,-2.173229 0.0566,-3.246472 0.445247,-1.419894 1.933593,-2.13539 2.955701,-3.141963 -0.649807,-1.1665697 -1.358797,-2.2998297 -1.994668,-3.4730377 -1.589851,0.382173 -3.240777,1.566513 -4.889466,0.711036 -1.293076,-0.822166 -3.045508,-1.34878 -3.606024,-2.8619827 -0.263742,-0.9488202 -0.447484,-1.9198356 -0.706409,-2.8708855 -1.330788,0.0089 -2.661473,0.013327 -3.992192,-0.00223 -0.134246,1.0465889 -0.341506,2.1153902 -0.87379,3.0553254 -0.515786,0.9221481 -1.526178,1.4243198 -2.425877,1.9620648 -0.640637,0.36219 -1.2859714,0.813265 -2.0608364,0.848822 -1.316595,0.08221 -2.4635719,-0.695497 -3.6906523,-0.962148 -0.7207059,1.113243 -1.3825214,2.257584 -2.1126553,3.3641547 0.7725253,0.673283 1.6015668,1.29324 2.3104877,2.026523 0.7112779,0.742151 0.8384694,1.784297 0.781936,2.744215 -0.054159,0.979866 0.1224947,2.08654 -0.5723187,2.915345 -0.692422,0.862251 -1.6604226,1.481968 -2.503606,2.206486 0.6476907,1.195352 1.3848784,2.346451 2.0278552,3.546434 1.3754504,-0.371007 2.6802604,-1.288833 4.1758314,-0.993468 0.8832,0.215606 1.5968524,0.788839 2.3787884,1.202212 0.850237,0.43327 1.667494,1.062078 1.938341,1.975444 0.244938,0.924344 0.480465,1.853147 0.650048,2.795329 1.344827,0.01115 2.692028,0 4.039177,0.0045 0.188388,-0.797759 0.04249,-1.895342 0.904431,-2.368749 0.843183,-0.520061 2.105636,0.213376 1.990195,1.159847 0,1.491059 -0.423914,3.453124 -2.211614,3.862037 -1.980733,0.06432 -3.966162,-0.03997 -5.949269,0.01321 -0.362702,-0.2554 -0.829042,-0.464316 -1.003321,-0.888667 -0.49225,-1.262075 -0.685369,-2.599791 -1.015106,-3.904233 C 9.9563926,26.71643 9.1744556,26.232046 8.3524856,25.816443 7.2926136,26.185391 6.2539551,26.618661 5.1564403,26.885381 4.2214051,27.103045 3.1639075,26.694303 2.7022814,25.889684 1.9391841,24.672034 1.2208352,23.427797 0.53310485,22.170182 0.13272775,21.354585 -0.24647425,20.328013 0.39414735,19.525966 1.2161384,18.592703 2.3372059,17.937309 3.1827463,17.019484 3.1591935,16.277299 3.2793141,15.530688 3.1686043,14.795193 2.2759929,13.568624 0.54488115,12.950896 0.08090495,11.446578 -0.18523375,10.688853 0.25755025,9.9489153 0.65086835,9.3111883 1.4233816,8.1046193 2.1299455,6.86028 2.9401654,5.6759229 3.4583077,4.9270999 4.5016805,4.6049089 5.3895951,4.9226574 6.3717206,5.2937328 7.3562206,5.649268 8.3501306,5.9870162 9.0778906,5.5381718 9.8621836,5.1648667 10.53107,4.6360063 11.237634,3.8672007 11.032748,2.7561702 11.364826,1.842907 11.619174,1.1140803 11.970108,0.16526534 12.900431,0.04527384 Z"
     fill="url(#paint0_linear)"
     id="path2"
     style="fill:url(#paint0_linear);stroke-width:0.171784" />
  <path
     d="m 13.849593,9.5867253 c 3.367968,-0.946608 7.237562,0.9710147 8.342079,4.1107647 1.229592,3.057503 -0.442495,6.795015 -3.619787,8.099284 -2.974712,1.377682 -6.86084,0.322294 -8.6531854,-2.290876 -1.858255,-2.517632 -1.439038,-6.237253 0.9515364,-8.321529 0.829024,-0.757725 1.865343,-1.3110097 2.979357,-1.5976437 z m 0.697136,2.4353507 c -1.719296,0.422172 -3.054729,1.962065 -3.115959,3.644151 -0.110693,1.49768 0.784293,2.995257 2.178599,3.710685 1.537963,0.828976 3.620063,0.606681 4.912967,-0.539787 1.255399,-1.04887 1.731098,-2.828708 1.139958,-4.310796 -0.692474,-1.913198 -3.052372,-3.08421 -5.115565,-2.504253 z"
     fill="url(#paint1_linear)"
     id="path4"
     style="fill:url(#paint1_linear);stroke-width:0.171784" />
  <defs
     id="defs16">
    <linearGradient
       id="paint0_linear"
       x1="44.567581"
       y1="189.56287"
       x2="95.999939"
       y2="2.9999995"
       gradientUnits="userSpaceOnUse"
       gradientTransform="matrix(0.17204313,0,0,0.17152415,-0.51612945,-0.51457236)">
      <stop
         stop-color="#dd55ff"
         id="stop6"
         offset="0"
         style="stop-color:#00f1fa;stop-opacity:1;" />
      <stop
         offset="1"
         stop-color="#6400ff"
         id="stop8"
         style="stop-color:#006cff;stop-opacity:1;" />
    </linearGradient>
    <linearGradient
       id="paint1_linear"
       x1="95.999939"
       y1="189.56287"
       x2="95.999939"
       y2="2.9999995"
       gradientUnits="userSpaceOnUse"
       gradientTransform="matrix(0.17204313,0,0,0.17152415,-0.51612945,-0.51457236)">
      <stop
         stop-color="#dd55ff"
         id="stop11"
         offset="0"
         style="stop-color:#00f1fa;stop-opacity:1;" />
      <stop
         offset="1"
         stop-color="#6400ff"
         id="stop13"
         style="stop-color:#006cff;stop-opacity:1;" />
    </linearGradient>
  </defs>
</svg>
