<?xml version="1.0" encoding="UTF-8" standalone="no"?>
<svg
   width="32"
   height="32"
   viewBox="0 0 32 32"
   fill="none"
   version="1.1"
   id="svg11"
   sodipodi:docname="reload.svg"
   inkscape:version="1.3.2 (091e20ef0f, 2023-11-25, custom)"
   xmlns:inkscape="http://www.inkscape.org/namespaces/inkscape"
   xmlns:sodipodi="http://sodipodi.sourceforge.net/DTD/sodipodi-0.dtd"
   xmlns:xlink="http://www.w3.org/1999/xlink"
   xmlns="http://www.w3.org/2000/svg"
   xmlns:svg="http://www.w3.org/2000/svg">
  <sodipodi:namedview
     id="namedview13"
     pagecolor="#ffffff"
     bordercolor="#666666"
     borderopacity="1.0"
     inkscape:showpageshadow="2"
     inkscape:pageopacity="0.0"
     inkscape:pagecheckerboard="0"
     inkscape:deskcolor="#d1d1d1"
     showgrid="false"
     inkscape:zoom="8.0000004"
     inkscape:cx="-1.1249999"
     inkscape:cy="18.874999"
     inkscape:current-layer="svg11" />
  <path
     id="path2"
     style="display:inline;fill:url(#paint0_linear);stroke-width:1.59967"
     d="M 15.996353,-3.4633897e-6 15.993153,0.00311154 c -0.09883,-4.122e-4 -0.199928,-0.0017 -0.296769,0 C 15.631334,0.06825657 11.938132,-0.08215666 8.1460371,2.0811291 7.5142446,2.4383446 7.1733567,3.6294897 7.9054982,4.3278831 8.4745208,4.9762386 9.3599231,4.8494462 9.8173131,4.5684954 12.3556,3.1917883 15.147407,2.7234901 17.998763,3.1810699 c 3.200399,0.4856676 5.945356,2.0096904 7.994014,4.5122572 1.962504,2.3623479 3.032831,5.2655169 3.01767,8.3245519 l -5.016954,-0.01876 5.101298,9.183881 c 1.098177,-1.564895 1.922481,-3.338386 2.405388,-5.246592 0.02445,-0.09667 0.04915,-0.193257 0.07184,-0.290608 0.484696,-1.937377 0.550324,-4.036319 0.23429,-6.0778 -3.14e-4,-0.0021 3.17e-4,-0.0042 0,-0.0062 -1.56e-4,-10e-4 1.57e-4,-0.002 0,-0.0032 -0.03828,-0.246468 -0.08191,-0.493116 -0.131199,-0.737461 -0.0032,-0.01568 -0.0063,-0.03121 -0.0094,-0.04687 -0.0051,-0.02532 -0.01344,-0.04973 -0.01875,-0.07499 -0.0435,-0.207532 -0.0892,-0.41334 -0.140574,-0.618718 -0.01232,-0.04899 -0.02471,-0.09805 -0.03748,-0.146867 -0.06046,-0.23271 -0.126355,-0.464599 -0.196806,-0.693712 -0.384664,-1.2509519 -0.914017,-2.4429876 -1.583806,-3.5185585 -0.0038,-0.0064 -0.0086,-0.012351 -0.01248,-0.018749 -0.01088,-0.018035 -0.02333,-0.035132 -0.03436,-0.053121 C 29.505893,7.4283624 29.365514,7.2103191 29.219703,6.9964307 26.521742,3.0387841 22.092999,0.35954477 17.024069,0.03743007 c -0.168937,-0.010735 -0.338873,-0.019549 -0.509193,-0.024999 -0.103947,-0.004 -0.206428,-0.00432 -0.309266,-0.00625 C 16.13554,0.00534617 16.066683,1.0666103e-6 15.996353,1.0666103e-6 Z M 2.8979149,6.8152549 C 1.7048668,8.5153418 0.83357541,10.46055 0.37381811,12.558696 c -0.013995,0.05996 -0.024285,0.121 -0.037486,0.181238 -0.011261,0.0544 -0.023661,0.107901 -0.034362,0.162493 -0.2954527,1.43039 -0.37077866,2.935532 -0.2405389,4.43101 0.019642,0.237806 0.04505,0.474597 0.074974,0.709338 0.00244,0.01872 0.00374,0.03754 0.00625,0.05626 0.138456,1.056335 0.3813141,2.078174 0.715369,3.05921 0.030125,0.08959 0.058932,0.179847 0.090593,0.268735 0.018142,0.05031 0.037598,0.09991 0.05623,0.149992 0.069887,0.190098 0.1417845,0.379178 0.2186718,0.565595 0.017371,0.04174 0.035392,0.08341 0.053105,0.125002 0.1808597,0.427743 0.3825085,0.842949 0.5997853,1.246807 0.044141,0.08283 0.088782,0.164908 0.1343263,0.246861 0.024843,0.04405 0.049694,0.08753 0.074974,0.13124 2.6568018,4.675415 7.5988405,7.87783 13.3077374,8.090189 0.30803,0.0136 0.614333,0.02081 0.909048,0.01568 0.06512,-0.06514 3.761454,0.08528 7.553549,-2.078013 0.631793,-0.357216 0.969558,-1.548359 0.237415,-2.246754 -0.56902,-0.648359 -1.451299,-0.524692 -1.90869,-0.243741 -2.538287,1.37672 -5.333217,1.848131 -8.184571,1.390551 C 10.799791,28.334651 8.0579601,26.81063 6.0093016,24.308063 4.0488013,21.948123 2.9787103,19.045356 2.9916314,15.989762 l 5.0075832,0.0094 z" />
  <defs
     id="defs9">
    <linearGradient
       id="linearGradient12"
       inkscape:collect="always">
      <stop
         style="stop-color:#c900ff;stop-opacity:1;"
         offset="0"
         id="stop12" />
      <stop
         style="stop-color:#6444ff;stop-opacity:1;"
         offset="1"
         id="stop13" />
    </linearGradient>
    <linearGradient
       id="linearGradient2"
       x1="-5337.0938"
       y1="-5846.7725"
       x2="-4091.0837"
       y2="-7153.0879"
       gradientUnits="userSpaceOnUse"
       gradientTransform="matrix(0.01107812,0,0,0.01107812,64.302469,84.082604)">
      <stop
         id="stop1"
         offset="0"
         style="stop-color:#00f1fa;stop-opacity:1;" />
      <stop
         offset="1"
         id="stop2"
         style="stop-color:#666666;stop-opacity:1;" />
    </linearGradient>
    <linearGradient
       id="paint0_linear"
       x1="12"
       y1="2"
       x2="11.623049"
       y2="21.990244"
       gradientUnits="userSpaceOnUse"
       xlink:href="#linearGradient12"
       gradientTransform="matrix(1.5994277,0,0,1.5999139,-3.1967795,-3.1998312)">
      <stop
         id="stop4"
         offset="0"
         style="stop-color:#6444ff;stop-opacity:1;" />
      <stop
         offset="1"
         id="stop6"
         style="stop-color:#c900ff;stop-opacity:1;" />
    </linearGradient>
    <linearGradient
       id="paint0_linear-7"
       x1="-5337.0938"
       y1="-5846.7725"
       x2="-4091.0837"
       y2="-7153.0879"
       gradientUnits="userSpaceOnUse"
       gradientTransform="matrix(0.01107812,0,0,0.01107812,64.302469,84.082604)"
       xlink:href="#linearGradient2">
      <stop
         id="stop3"
         offset="0"
         style="stop-color:#00f1fa;stop-opacity:1;" />
      <stop
         offset="1"
         id="stop4-5"
         style="stop-color:#006cff;stop-opacity:1;" />
    </linearGradient>
  </defs>
</svg>
