<?xml version="1.0" encoding="UTF-8" standalone="no"?>
<svg
   width="32"
   height="32"
   viewBox="0 0 32 32"
   fill="none"
   version="1.1"
   id="svg33"
   sodipodi:docname="user-home.svg"
   inkscape:version="1.3.2 (091e20ef0f, 2023-11-25, custom)"
   xmlns:inkscape="http://www.inkscape.org/namespaces/inkscape"
   xmlns:sodipodi="http://sodipodi.sourceforge.net/DTD/sodipodi-0.dtd"
   xmlns="http://www.w3.org/2000/svg"
   xmlns:svg="http://www.w3.org/2000/svg">
  <sodipodi:namedview
     id="namedview35"
     pagecolor="#ffffff"
     bordercolor="#666666"
     borderopacity="1.0"
     inkscape:pageshadow="2"
     inkscape:pageopacity="0.0"
     inkscape:pagecheckerboard="0"
     showgrid="true"
     inkscape:zoom="19.9375"
     inkscape:cx="28.037618"
     inkscape:cy="11.636364"
     inkscape:current-layer="svg33"
     inkscape:showpageshadow="2"
     inkscape:deskcolor="#d1d1d1">
    <inkscape:grid
       type="xygrid"
       id="grid882"
       originx="0"
       originy="0"
       spacingy="1"
       spacingx="1"
       units="px"
       visible="true"
       enabled="false" />
  </sodipodi:namedview>
  <g
     clip-path="url(#clip0)"
     id="g6"
     transform="matrix(0.25599998,0,0,0.25599998,-0.38399931,-0.38399847)">
    <g
       id="path2">
      <path
         id="path10241"
         style="color:#000000;fill:url(#paint0_linear);stroke-width:2.90557;-inkscape-stroke:none"
         d="m 65.420156,2.0048997 c -2.681067,-0.07808 -5.388758,0.780968 -7.498501,2.5953429 l -0.0076,0.00568 -0.0057,0.00568 C 40.445255,19.970129 23.006514,35.358042 5.5607783,50.730005 c -1.6791982,1.438603 -2.6556278,3.865533 -1.7800428,6.18002 1.0871108,3.713023 5.8248789,5.375743 8.8964305,2.916923 l 0.02081,-0.01513 0.01892,-0.01702 c 17.530254,-15.060196 34.85312,-30.362574 52.349526,-45.43742 16.608592,14.909484 33.016986,30.074305 49.568798,45.089354 1.43805,1.332797 3.69703,2.192149 5.83574,1.254165 4.00716,-1.190778 5.5368,-6.631423 2.39862,-9.583096 l -0.006,-0.0057 -0.006,-0.0038 C 106.16898,35.713999 89.443341,20.366415 72.72571,5.0050557 l 0.02649,0.026483 C 70.754246,3.0983273 68.101226,2.082979 65.420159,2.0048993 Z M 63.360149,59.172437 c -12.531276,-0.01399 -25.064665,1.16e-4 -37.596548,0.13809 l -0.100257,0.0019 -0.09837,0.01324 c -5.11397,0.761656 -8.833084,5.651463 -8.5408,10.799427 l -0.0019,-0.08134 c 0,15.235732 -0.03146,30.474626 0.01513,45.717386 0,5.56296 4.761717,10.34448 10.28301,10.20356 5.851682,-0.14773 11.904292,0.29269 17.95176,-0.22511 0.06775,0.002 0.131162,-0.0218 0.196737,-0.0327 5.638792,-1.27672 5.531041,-10.21289 -0.07756,-11.48041 l -0.0908,-0.0208 -0.09269,-0.01 c -4.506134,-0.4254 -8.907375,-0.0323 -13.124268,-0.20997 -1.677469,-0.17507 -3.257923,-1.91636 -3.270664,-3.67738 v -0.004 c -0.03115,-11.591085 -0.0076,-23.185694 -0.0076,-34.791208 v -0.05864 l -0.0038,-0.06054 c -0.175472,-2.142546 1.780001,-4.313455 3.843834,-4.286477 h 0.0095 0.01135 c 20.926638,-0.0156 41.853168,-0.0156 62.787652,0 h 0.01135 0.01135 c 1.817344,-0.02642 3.642359,1.785293 3.658449,3.684933 0.0464,11.801981 0.03061,23.614807 0.0078,35.421142 v 0.004 0.004 c 0.0058,1.81226 -1.589619,3.6189 -3.312277,3.76438 -2.911569,0.0827 -5.872211,0.007 -8.877514,0.0302 -0.934863,-0.004 -2.098035,-0.0869 -3.331196,0.0965 -1.223013,0.18188 -2.585043,0.71241 -3.561977,1.90298 -3.22778,3.37284 -1.071069,9.43383 3.580894,9.92549 0.04685,0.0106 0.09458,0.005 0.14187,0.008 5.729164,0.0398 11.452566,-0.008 17.153486,0.0246 h 0.0322 l 0.0302,-0.002 c 3.71662,-0.13959 7.20277,-2.36002 8.82644,-5.79791 1.47902,-2.86042 1.08132,-5.91106 1.11797,-8.34973 v -0.0133 -0.0113 c -0.0388,-14.155189 0.0847,-28.334036 -0.0548,-42.518609 v -0.0019 c -0.0457,-5.386454 -4.55485,-10.088324 -9.94631,-10.078719 -12.520911,0.02769 -25.050143,-0.01439 -37.581419,-0.02837 z"
         sodipodi:nodetypes="sccccccccccccccccsscccccccccccccccssccccsscccscsccscccccccccsssccc" />
    </g>
  </g>
  <defs
     id="defs31">
    <linearGradient
       id="paint0_linear"
       x1="92.393677"
       y1="20.367702"
       x2="25.195557"
       y2="127.4441"
       gradientUnits="userSpaceOnUse"
       gradientTransform="matrix(0.96852488,0,0,0.9685245,1.9969094,2.5099701)">
      <stop
         stop-color="#24d864"
         id="stop8" />
      <stop
         offset="1"
         stop-color="#e5f230"
         id="stop10" />
    </linearGradient>
    <linearGradient
       id="paint1_linear"
       x1="65"
       y1="2.5"
       x2="65"
       y2="125"
       gradientUnits="userSpaceOnUse">
      <stop
         stop-color="#24d864"
         id="stop13" />
      <stop
         offset="0.986957"
         stop-color="#e5f230"
         id="stop15" />
    </linearGradient>
    <linearGradient
       id="paint2_linear"
       x1="65"
       y1="2.5"
       x2="65"
       y2="125"
       gradientUnits="userSpaceOnUse">
      <stop
         stop-color="#24d864"
         id="stop18" />
      <stop
         offset="0.986957"
         stop-color="#e5f230"
         id="stop20" />
    </linearGradient>
    <linearGradient
       id="paint3_linear"
       x1="65"
       y1="2.5"
       x2="65"
       y2="125"
       gradientUnits="userSpaceOnUse">
      <stop
         stop-color="#24d864"
         id="stop23" />
      <stop
         offset="0.986957"
         stop-color="#e5f230"
         id="stop25" />
    </linearGradient>
    <clipPath
       id="clip0">
      <rect
         width="128"
         height="128"
         fill="#ffffff"
         id="rect28"
         x="0"
         y="0" />
    </clipPath>
  </defs>
</svg>
