<?xml version="1.0" encoding="UTF-8" standalone="no"?>
<svg
   width="128"
   height="128"
   viewBox="0 0 128 128"
   fill="none"
   version="1.1"
   id="svg33"
   sodipodi:docname="user-home.svg"
   inkscape:version="1.1.2 (0a00cf5339, 2022-02-04)"
   xmlns:inkscape="http://www.inkscape.org/namespaces/inkscape"
   xmlns:sodipodi="http://sodipodi.sourceforge.net/DTD/sodipodi-0.dtd"
   xmlns="http://www.w3.org/2000/svg"
   xmlns:svg="http://www.w3.org/2000/svg">
  <sodipodi:namedview
     id="namedview35"
     pagecolor="#ffffff"
     bordercolor="#666666"
     borderopacity="1.0"
     inkscape:pageshadow="2"
     inkscape:pageopacity="0.0"
     inkscape:pagecheckerboard="0"
     showgrid="true"
     inkscape:zoom="4.984375"
     inkscape:cx="63.899687"
     inkscape:cy="64"
     inkscape:current-layer="svg33">
    <inkscape:grid
       type="xygrid"
       id="grid882" />
  </sodipodi:namedview>
  <g
     clip-path="url(#clip0)"
     id="g6">
    <path
       d="M 58.7193,3.29552 C 62.449,0.0879842 68.4814,0.265001 72.0122,3.68139 89.2737,19.5425 106.543,35.3873 123.773,51.2802 c 2.359,2.2188 1.1,6.5598 -1.929,7.4039 -1.522,0.7394 -3.355,0.0883 -4.526,-0.997 C 99.9046,41.8906 82.6431,25.9171 65.1425,10.2252 46.7252,26.0782 28.5155,42.18 10.0906,58.0088 7.81119,59.8335 4.03373,58.4989 3.2529,55.7095 2.57535,54.0214 3.33227,52.0597 4.65534,50.9262 22.6738,35.0496 40.6846,19.1567 58.7193,3.29552 Z"
       fill="url(#paint0_linear)"
       stroke="url(#paint1_linear)"
       stroke-width="3"
       id="path2"
       style="stroke:url(#paint1_linear);fill:url(#paint0_linear)" />
    <path
       d="m 24.5552,60.1466 c 25.8585,-0.2847 51.7411,-0.0566 77.6078,-0.1138 4.659,-0.0083 8.727,4.2164 8.766,8.9217 0.144,14.6277 0.017,29.2632 0.057,43.8905 -0.04,2.662 0.28,5.536 -0.993,7.978 -1.417,3.028 -4.555,5.03 -7.83,5.153 -5.9001,-0.033 -11.8084,0.016 -17.7085,-0.025 -3.5387,-0.374 -5.2598,-5.234 -2.7303,-7.782 1.4574,-1.823 3.9389,-1.546 6.0044,-1.539 3.0905,-0.024 6.1806,0.058 9.263,-0.032 2.6496,-0.212 4.8194,-2.703 4.8114,-5.389 0.024,-12.1933 0.04,-24.3956 -0.008,-36.589 -0.024,-2.8328 -2.514,-5.3319 -5.3001,-5.2914 -21.6156,-0.0161 -43.2231,-0.0161 -64.8306,0 -3.0982,-0.0405 -5.7401,2.9226 -5.4841,6.0484 0,11.982 -0.024,23.9562 0.0082,35.93 0.0158,2.637 2.1692,5.039 4.7472,5.291 4.5071,0.196 9.0464,-0.212 13.5377,0.212 4.2832,0.968 4.3952,7.952 0.0802,8.929 -6.0846,0.521 -12.3051,0.073 -18.4454,0.228 -4.7794,0.122 -9.0785,-4.176 -9.0785,-9.035 -0.0481,-15.735 -0.0159,-31.4695 -0.0159,-47.2044 -0.2565,-4.5177 3.1141,-8.9216 7.5415,-9.581 z"
       fill="url(#paint2_linear)"
       stroke="url(#paint3_linear)"
       stroke-width="3"
       id="path4"
       style="stroke:url(#paint3_linear);fill:url(#paint2_linear)" />
  </g>
  <defs
     id="defs31">
    <linearGradient
       id="paint0_linear"
       x1="65"
       y1="2.5"
       x2="65"
       y2="125"
       gradientUnits="userSpaceOnUse">
      <stop
         stop-color="#54d863"
         id="stop8" />
      <stop
         offset="0.986957"
         stop-color="#e5f230"
         id="stop10" />
    </linearGradient>
    <linearGradient
       id="paint1_linear"
       x1="65"
       y1="2.5"
       x2="65"
       y2="125"
       gradientUnits="userSpaceOnUse">
      <stop
         stop-color="#54d863"
         id="stop13" />
      <stop
         offset="0.986957"
         stop-color="#e5f230"
         id="stop15" />
    </linearGradient>
    <linearGradient
       id="paint2_linear"
       x1="65"
       y1="2.5"
       x2="65"
       y2="125"
       gradientUnits="userSpaceOnUse">
      <stop
         stop-color="#54d863"
         id="stop18" />
      <stop
         offset="0.986957"
         stop-color="#e5f230"
         id="stop20" />
    </linearGradient>
    <linearGradient
       id="paint3_linear"
       x1="65"
       y1="2.5"
       x2="65"
       y2="125"
       gradientUnits="userSpaceOnUse">
      <stop
         stop-color="#54d863"
         id="stop23" />
      <stop
         offset="0.986957"
         stop-color="#e5f230"
         id="stop25" />
    </linearGradient>
    <clipPath
       id="clip0">
      <rect
         width="128"
         height="128"
         fill="white"
         id="rect28" />
    </clipPath>
  </defs>
</svg>
