<?xml version="1.0" encoding="UTF-8" standalone="no"?>
<svg
   width="32"
   height="32"
   viewBox="0 0 32 32"
   fill="none"
   version="1.1"
   id="svg11"
   sodipodi:docname="view.svg"
   inkscape:version="1.3.2 (091e20ef0f, 2023-11-25, custom)"
   xmlns:inkscape="http://www.inkscape.org/namespaces/inkscape"
   xmlns:sodipodi="http://sodipodi.sourceforge.net/DTD/sodipodi-0.dtd"
   xmlns="http://www.w3.org/2000/svg"
   xmlns:svg="http://www.w3.org/2000/svg">
  <sodipodi:namedview
     id="namedview11"
     pagecolor="#ffffff"
     bordercolor="#666666"
     borderopacity="1.0"
     inkscape:showpageshadow="2"
     inkscape:pageopacity="0.0"
     inkscape:pagecheckerboard="0"
     inkscape:deskcolor="#d1d1d1"
     inkscape:zoom="8.3085047"
     inkscape:cx="10.170302"
     inkscape:cy="36.829732"
     inkscape:current-layer="svg11" />
  <path
     fill-rule="evenodd"
     clip-rule="evenodd"
     d="M 0.3809524,16 C 0.3809524,24.599683 7.39981,31.619048 16,31.619048 24.599683,31.619048 31.619048,24.60019 31.619048,16 31.619048,7.400317 24.600254,0.3809524 16,0.3809524 7.400317,0.3809524 0.3809524,7.399746 0.3809524,16 Z m 1.8303555,0 C 2.2113079,8.396889 8.396889,2.2113079 16,2.2113079 23.603111,2.2113079 29.788698,8.396889 29.788698,16 29.788698,23.603111 23.603111,29.788698 16,29.788698 8.396889,29.788698 2.2113079,23.603111 2.2113079,16 Z"
     fill="url(#paint0_linear)"
     id="path1"
     style="display:inline;fill:url(#paint0_linear);stroke-width:0.0634921" />
  <path
     d="M 16,31.238095 C 7.610222,31.238095 0.7619048,24.389333 0.7619048,16 H 0 c 0,8.810095 7.189397,16 16,16 z M 31.238095,16 c 0,8.389778 -6.848762,15.238095 -15.238095,15.238095 V 32 c 8.810095,0 16,-7.189397 16,-16 z M 16,0.7619048 C 24.389841,0.7619048 31.238095,7.610667 31.238095,16 H 32 C 32,7.189905 24.810667,0 16,0 Z M 0.7619048,16 C 0.7619048,7.610159 7.610667,0.7619048 16,0.7619048 V 0 C 7.189905,0 0,7.189333 0,16 Z M 16,1.8303556 C 8.186476,1.8303556 1.8303556,8.186476 1.8303556,16 H 2.5922603 C 2.5922603,8.607302 8.607302,2.5922603 16,2.5922603 Z M 30.169651,16 C 30.169651,8.186476 23.813524,1.8303556 16,1.8303556 V 2.5922603 C 23.392698,2.5922603 29.407746,8.607302 29.407746,16 Z M 16,30.169651 c 7.813524,0 14.169651,-6.356127 14.169651,-14.169651 h -0.761905 c 0,7.392698 -6.015048,13.407746 -13.407746,13.407746 z M 1.8303556,16 C 1.8303556,23.813524 8.186476,30.169651 16,30.169651 V 29.407746 C 8.607302,29.407746 2.5922603,23.392698 2.5922603,16 Z"
     fill="url(#paint1_linear)"
     id="path2"
     style="display:inline;fill:url(#paint1_linear);stroke-width:0.0634921" />
  <path
     d="m 19.239492,19.239492 -6.470921,-6.470921 5.72e-4,-0.0018 c -0.08171,0.08171 -0.148254,0.179365 -0.194603,0.287937 l -3.882794,9.060317 c -0.147683,0.343492 -0.07079,0.743111 0.194032,1.007302 0.264762,0.265397 0.664381,0.341016 1.007301,0.194031 l 9.060254,-3.882857 c 0.108,-0.04571 0.205016,-0.112254 0.28673,-0.193397 z"
     fill="url(#paint2_linear)"
     id="path3"
     style="fill:url(#paint2_linear);stroke-width:0.0634921" />
  <path
     d="m 23.316444,9.893079 -3.882793,9.060254 c -0.04571,0.108 -0.112254,0.205016 -0.193397,0.28673 l -6.35e-4,-5.71e-4 -6.470921,-6.470921 6.35e-4,-0.0018 c 0.08178,-0.08057 0.178159,-0.146413 0.285524,-0.19219 l 9.060254,-3.882794 c 0.344127,-0.147683 0.743175,-0.07079 1.007365,0.194032 0.264762,0.26419 0.341651,0.663809 0.193968,1.007301 z"
     fill="url(#paint3_linear)"
     id="path4"
     style="fill:url(#paint3_linear);stroke-width:0.0634921" />
  <defs
     id="defs11">
    <linearGradient
       id="paint0_linear"
       x1="129.55952"
       y1="512"
       x2="435.34366"
       y2="79.280602"
       gradientUnits="userSpaceOnUse"
       gradientTransform="matrix(0.06349206,0,0,0.06349206,-0.2539683,-0.2539683)">
      <stop
         id="stop4"
         offset="0"
         style="stop-color:#00f1fa;stop-opacity:1;" />
      <stop
         offset="1"
         id="stop5"
         style="stop-color:#006cff;stop-opacity:1;" />
    </linearGradient>
    <linearGradient
       id="paint1_linear"
       x1="129.55952"
       y1="512"
       x2="435.34366"
       y2="79.280602"
       gradientUnits="userSpaceOnUse"
       gradientTransform="matrix(0.06349206,0,0,0.06349206,-0.2539683,-0.2539683)">
      <stop
         id="stop6"
         offset="0"
         style="stop-color:#00f1fa;stop-opacity:1;" />
      <stop
         offset="1"
         id="stop7"
         style="stop-color:#006cff;stop-opacity:1;" />
    </linearGradient>
    <linearGradient
       id="paint2_linear"
       x1="129.55952"
       y1="512"
       x2="435.34366"
       y2="79.280602"
       gradientUnits="userSpaceOnUse"
       gradientTransform="matrix(0.06349206,0,0,0.06349206,-0.2539683,-0.2539683)">
      <stop
         id="stop8"
         offset="0"
         style="stop-color:#00f1fa;stop-opacity:1;" />
      <stop
         offset="1"
         id="stop9"
         style="stop-color:#006cff;stop-opacity:1;" />
    </linearGradient>
    <linearGradient
       id="paint3_linear"
       x1="129.55952"
       y1="512"
       x2="435.34366"
       y2="79.280602"
       gradientUnits="userSpaceOnUse"
       gradientTransform="matrix(0.06349206,0,0,0.06349206,-0.2539683,-0.2539683)">
      <stop
         id="stop10"
         offset="0"
         style="stop-color:#00f1fa;stop-opacity:1;" />
      <stop
         offset="1"
         id="stop11"
         style="stop-color:#006cff;stop-opacity:1;" />
    </linearGradient>
  </defs>
</svg>
