<?xml version="1.0" encoding="UTF-8" standalone="no"?>
<svg
   width="32"
   height="32"
   viewBox="0 0 32 32"
   fill="none"
   version="1.1"
   id="svg11"
   sodipodi:docname="apps2.svg"
   inkscape:version="1.3 (0e150ed6c4, 2023-07-21)"
   xmlns:inkscape="http://www.inkscape.org/namespaces/inkscape"
   xmlns:sodipodi="http://sodipodi.sourceforge.net/DTD/sodipodi-0.dtd"
   xmlns="http://www.w3.org/2000/svg"
   xmlns:svg="http://www.w3.org/2000/svg">
  <sodipodi:namedview
     id="namedview13"
     pagecolor="#ffffff"
     bordercolor="#666666"
     borderopacity="1.0"
     inkscape:pageshadow="2"
     inkscape:pageopacity="0.0"
     inkscape:pagecheckerboard="0"
     showgrid="true"
     inkscape:zoom="14.097941"
     inkscape:cx="6.4193771"
     inkscape:cy="14.718461"
     inkscape:current-layer="svg11"
     inkscape:showpageshadow="2"
     inkscape:deskcolor="#d1d1d1">
    <inkscape:grid
       type="xygrid"
       id="grid6391"
       originx="0"
       originy="0"
       spacingy="1"
       spacingx="1"
       units="px"
       visible="true" />
  </sodipodi:namedview>
  <path
     d="m 30.222217,26.666664 v -3.555555 c 0,-0.94305 -0.374637,-1.847348 -1.041426,-2.514132 -0.666786,-0.666903 -1.571086,-1.041421 -2.514141,-1.041421 h -3.55557 c -0.942937,0 -1.847355,0.374518 -2.514143,1.041421 -0.666788,0.666784 -1.041426,1.571082 -1.041426,2.514132 v 3.555555 c 0,0.942934 0.374638,1.847348 1.041426,2.514135 0.666788,0.666783 1.571206,1.04142 2.514143,1.04142 h 3.55557 c 0.838053,0 1.914191,-0.422475 2.514251,-1.041316 0.61939,-0.638773 1.041316,-1.696728 1.041316,-2.514239 z M 1.7777835,5.3333359 c 0,-0.9429925 0.3746031,-1.8473594 1.0414027,-2.5141565 0.6667995,-0.666797 1.5711704,-1.0413985 2.5141667,-1.0413985 h 3.5555689 c 0.9429368,0 1.8473552,0.3746015 2.5141432,1.0413985 0.666788,0.6667971 1.041425,1.571164 1.041425,2.5141565 v 3.5555554 c 0,0.9429328 -0.374637,1.8473467 -1.041425,2.5141327 -0.666788,0.666785 -1.5712064,1.041421 -2.5141432,1.041421 H 5.3333529 c -0.9429963,0 -1.8473672,-0.374636 -2.5141667,-1.041421 C 2.1523866,10.736238 1.7777835,9.8318241 1.7777835,8.8888913 Z m 17.7777275,0 c 0,-0.9429925 0.374638,-1.8473594 1.041426,-2.5141565 0.666788,-0.666797 1.571206,-1.0413985 2.514143,-1.0413985 h 3.55557 c 0.943055,0 1.847355,0.3746015 2.514141,1.0413985 0.666789,0.6667971 1.041426,1.571164 1.041426,2.5141565 v 3.5555554 c 0,0.9429328 -0.374637,1.8473467 -1.041426,2.5141327 -0.666786,0.666785 -1.571086,1.041421 -2.514141,1.041421 h -3.55557 c -0.942937,0 -1.847355,-0.374636 -2.514143,-1.041421 C 19.930149,10.736238 19.555511,9.8318241 19.555511,8.8888913 Z M 1.7777835,23.111109 c 0,-0.94305 0.3746031,-1.847348 1.0414027,-2.514132 0.6667995,-0.666903 1.5711704,-1.041421 2.5141667,-1.041421 h 3.5555689 c 0.9429368,0 1.8473552,0.374518 2.5141432,1.041421 0.666788,0.666784 1.041425,1.571082 1.041425,2.514132 v 3.555555 c 0,0.942934 -0.374637,1.847348 -1.041425,2.514135 -0.666788,0.666783 -1.5712064,1.04142 -2.5141432,1.04142 H 5.3333529 c -0.9429963,0 -1.8473672,-0.374637 -2.5141667,-1.04142 C 2.1523866,28.514012 1.7777835,27.609598 1.7777835,26.666664 Z"
     stroke="url(#paint0_linear)"
     stroke-width="3.55556"
     stroke-linecap="round"
     stroke-linejoin="round"
     id="path2"
     style="stroke:url(#paint0_linear)"
     sodipodi:nodetypes="sscsscsssssssssssssssssssssssssssssssssscsscssssssss" />
  <defs
     id="defs9">
    <linearGradient
       id="paint0_linear"
       x1="15.999951"
       y1="5.5483837"
       x2="15.999951"
       y2="29.064516"
       gradientUnits="userSpaceOnUse"
       gradientTransform="matrix(1.1851896,0,0,1.185185,-2.9629752,-2.9629589)">
      <stop
         stop-color="#5558ff"
         id="stop4"
         offset="0"
         style="stop-color:#6033ff;stop-opacity:1;" />
      <stop
         offset="1"
         stop-color="#00ddff"
         id="stop6"
         style="stop-color:#bf00ff;stop-opacity:1;" />
    </linearGradient>
  </defs>
</svg>
