<?xml version="1.0" encoding="UTF-8" standalone="no"?>
<!-- Generator: Gravit.io -->

<svg
   style="isolation:isolate"
   viewBox="0 0 48 48"
   width="48pt"
   height="48pt"
   version="1.1"
   id="svg13"
   sodipodi:docname="ghex2.svg"
   inkscape:version="1.2.1 (9c6d41e410, 2022-07-14)"
   xmlns:inkscape="http://www.inkscape.org/namespaces/inkscape"
   xmlns:sodipodi="http://sodipodi.sourceforge.net/DTD/sodipodi-0.dtd"
   xmlns:xlink="http://www.w3.org/1999/xlink"
   xmlns="http://www.w3.org/2000/svg"
   xmlns:svg="http://www.w3.org/2000/svg">
  <defs
     id="defs17">
    <linearGradient
       inkscape:collect="always"
       id="linearGradient3413">
      <stop
         style="stop-color:#006cff;stop-opacity:1;"
         offset="0"
         id="stop3409" />
      <stop
         style="stop-color:#00f1fa;stop-opacity:1;"
         offset="1"
         id="stop3411" />
    </linearGradient>
    <linearGradient
       inkscape:collect="always"
       xlink:href="#linearGradient3413"
       id="linearGradient3415"
       x1="20.625"
       y1="2.25"
       x2="20.625"
       y2="45.75"
       gradientUnits="userSpaceOnUse" />
  </defs>
  <sodipodi:namedview
     id="namedview15"
     pagecolor="#ffffff"
     bordercolor="#666666"
     borderopacity="1.0"
     inkscape:pageshadow="2"
     inkscape:pageopacity="0.0"
     inkscape:pagecheckerboard="0"
     inkscape:document-units="pt"
     showgrid="true"
     inkscape:zoom="6.9384853"
     inkscape:cx="16.646284"
     inkscape:cy="34.445558"
     inkscape:current-layer="svg13"
     inkscape:showpageshadow="2"
     inkscape:deskcolor="#d1d1d1">
    <inkscape:grid
       type="xygrid"
       id="grid864" />
  </sodipodi:namedview>
  <linearGradient
     id="_lgradient_24"
     x1="0.59236455"
     y1="0.46590909"
     x2="0.42442903"
     y2="0.99431819"
     gradientTransform="matrix(44.66,0,0,44,1.67,2)"
     gradientUnits="userSpaceOnUse">
    <stop
       offset="100%"
       stop-opacity="1"
       style="stop-color:#5558ff;stop-opacity:1"
       id="stop8" />
  </linearGradient>
  <path
     d=" M 7.79 17.11 L 7.79 17.11 C 8.281 18.092 7.88 19.291 6.895 19.785 L 6.895 19.785 C 5.91 20.279 4.707 19.878 4.21 18.89 L 4.21 18.89 L 1.72 13.91 L 8.87 2 L 21.13 2 L 27.13 12 L 39.13 12 L 46.33 24 L 39.13 36 L 24.76 36 L 22.21 30.89 L 22.21 30.89 C 21.719 29.908 22.12 28.709 23.105 28.215 L 23.105 28.215 C 24.09 27.721 25.293 28.122 25.79 29.11 L 25.79 29.11 L 27.24 32 L 36.87 32 L 41.67 24 L 36.87 16 L 24.87 16 L 18.87 6 L 11.13 6 L 6.28 14.09 L 7.79 17.11 Z  M 21.4 38.8 L 21.4 38.8 C 22.062 37.917 23.317 37.738 24.2 38.4 L 24.2 38.4 C 25.083 39.062 25.262 40.317 24.6 41.2 L 24.6 41.2 L 21 46 L 8.87 46 L 1.67 34 L 8.87 22 L 18.76 22 L 20.21 19.11 L 20.21 19.11 C 20.707 18.122 21.91 17.721 22.895 18.215 L 22.895 18.215 C 23.88 18.709 24.281 19.908 23.79 20.89 L 23.79 20.89 L 21.24 26 L 11.13 26 L 6.33 34 L 11.13 42 L 19 42 L 21.4 38.8 Z "
     fill-rule="evenodd"
     fill="url(#_lgradient_24)"
     id="path11"
     style="fill-opacity:1;fill:url(#linearGradient3415)" />
</svg>
