<?xml version="1.0" encoding="UTF-8" standalone="no"?>
<svg
   width="32"
   height="32"
   viewBox="0 0 32 32"
   fill="none"
   version="1.1"
   id="svg11"
   sodipodi:docname="go-next.svg"
   inkscape:version="1.3 (0e150ed6c4, 2023-07-21)"
   xmlns:inkscape="http://www.inkscape.org/namespaces/inkscape"
   xmlns:sodipodi="http://sodipodi.sourceforge.net/DTD/sodipodi-0.dtd"
   xmlns="http://www.w3.org/2000/svg"
   xmlns:svg="http://www.w3.org/2000/svg">
  <sodipodi:namedview
     id="namedview13"
     pagecolor="#ffffff"
     bordercolor="#666666"
     borderopacity="1.0"
     inkscape:pageshadow="2"
     inkscape:pageopacity="0.0"
     inkscape:pagecheckerboard="0"
     showgrid="true"
     gridtolerance="4.8"
     inkscape:zoom="16"
     inkscape:cx="14.8125"
     inkscape:cy="18.96875"
     inkscape:current-layer="svg11"
     inkscape:showpageshadow="2"
     inkscape:deskcolor="#d1d1d1">
    <inkscape:grid
       type="xygrid"
       id="grid1244"
       spacingx="0.5"
       spacingy="0.5"
       originx="-6"
       originy="-0.74999994"
       units="px"
       visible="true" />
  </sodipodi:namedview>
  <defs
     id="defs9">
    <linearGradient
       id="paint0_linear"
       x1="12.389434"
       y1="7.2545543"
       x2="12.378265"
       y2="18"
       gradientUnits="userSpaceOnUse"
       gradientTransform="matrix(0,1.7053308,-1.6059673,0,36.283952,-5.1158378)">
      <stop
         stop-color="#e5f230"
         id="stop4" />
      <stop
         offset="1"
         stop-color="#54d863"
         id="stop6" />
    </linearGradient>
  </defs>
  <rect
     style="fill:#000000;fill-opacity:0"
     id="rect1"
     width="32"
     height="32"
     x="0"
     y="0" />
  <path
     d="m 7.9672155,31.373804 c 0.1864526,0.198498 0.4079151,0.356072 0.6518612,0.463507 C 8.8630227,31.944746 9.1244751,32 9.3884965,32 c 0.2640197,0 0.525472,-0.05525 0.7694185,-0.162689 0.243786,-0.107421 0.465409,-0.265009 0.651862,-0.463507 l 13.345574,-14.1713 c 0.148874,-0.157743 0.266993,-0.345159 0.34758,-0.551502 0.08059,-0.206177 0.122069,-0.427357 0.122069,-0.650754 0,-0.223401 -0.04147,-0.444411 -0.122073,-0.650757 -0.08058,-0.206343 -0.198704,-0.393758 -0.347579,-0.551503 L 10.809777,0.62670898 c -0.786923,-0.83561197 -2.0556377,-0.83561197 -2.8425615,0 -0.7869243,0.83561192 -0.7869243,2.18282322 0,3.01843502 L 19.594421,16.008774 7.9511559,28.372419 c -0.7708647,0.81856 -0.7708647,2.182824 0.016065,3.001385 z"
     fill="url(#paint0_linear)"
     id="path2"
     style="fill:url(#paint0_linear);stroke-width:1.65493" />
</svg>
