<?xml version="1.0" encoding="UTF-8" standalone="no"?>
<svg
   width="32"
   height="32"
   viewBox="0 0 32 32"
   fill="none"
   version="1.1"
   id="svg11"
   sodipodi:docname="bookmark-ribbon copy.svg"
   inkscape:version="1.3.2 (091e20ef0f, 2023-11-25, custom)"
   xmlns:inkscape="http://www.inkscape.org/namespaces/inkscape"
   xmlns:sodipodi="http://sodipodi.sourceforge.net/DTD/sodipodi-0.dtd"
   xmlns="http://www.w3.org/2000/svg"
   xmlns:svg="http://www.w3.org/2000/svg">
  <sodipodi:namedview
     id="namedview13"
     pagecolor="#ffffff"
     bordercolor="#666666"
     borderopacity="1.0"
     inkscape:pageshadow="2"
     inkscape:pageopacity="0.0"
     inkscape:pagecheckerboard="0"
     showgrid="true"
     inkscape:zoom="8"
     inkscape:cx="38"
     inkscape:cy="23.6875"
     inkscape:current-layer="svg11"
     inkscape:showpageshadow="2"
     inkscape:deskcolor="#d1d1d1">
    <inkscape:grid
       type="xygrid"
       id="grid988"
       originx="-3"
       originy="-0.74999988"
       spacingy="1"
       spacingx="1"
       units="px"
       visible="true" />
  </sodipodi:namedview>
  <path
     d="M 6.3120578,6.6414852e-8 C 5.6700006,6.6414852e-8 5.1495001,0.52049138 5.1495001,1.1625376 V 30.836307 c 0,0.821913 0.8294849,1.384117 1.5929132,1.079996 l 8.8272547,-3.517608 c 0.27634,-0.110212 0.584394,-0.110212 0.860734,0 l 8.827161,3.517608 C 26.021134,32.220424 26.8505,31.65822 26.8505,30.836307 V 1.1625376 C 26.8505,0.52049138 26.330138,6.6414852e-8 25.687942,6.6414852e-8 H 7.8621425 Z M 7.8621424,3.8751327 c 0,-0.6420697 0.5204773,-1.1625374 1.1625579,-1.1625374 H 22.97546 c 0.641966,0 1.16256,0.5204677 1.16256,1.1625374 V 27.026439 c 0,0.820751 -0.827509,1.382953 -1.590611,1.080926 l -6.119332,-2.423192 c -0.274969,-0.109043 -0.581093,-0.109043 -0.856062,0 L 9.4527308,28.107365 C 8.6896279,28.409392 7.8621425,27.84719 7.8621425,27.026439 v -5.325816 z"
     fill="url(#paint0_linear)"
     id="path2"
     style="fill:url(#paint0_linear);stroke-width:2.32511" />
  <defs
     id="defs9">
    <linearGradient
       id="paint0_linear"
       x1="7.5"
       y1="14"
       x2="7.5"
       y2="1"
       gradientUnits="userSpaceOnUse"
       gradientTransform="matrix(2.3251154,0,0,2.3250748,-1.825846,-2.3250747)">
      <stop
         stop-color="#e5f230"
         id="stop4"
         offset="0"
         style="stop-color:#dd55ff;stop-opacity:1;" />
      <stop
         offset="1"
         stop-color="#54d863"
         id="stop6"
         style="stop-color:#6400ff;stop-opacity:1;" />
    </linearGradient>
  </defs>
</svg>
