<?xml version="1.0" encoding="UTF-8" standalone="no"?>
<svg
   width="24"
   height="24"
   viewBox="0 0 24 24"
   fill="none"
   version="1.1"
   id="svg11"
   sodipodi:docname="reload.svg"
   inkscape:version="1.2.1 (9c6d41e410, 2022-07-14)"
   xmlns:inkscape="http://www.inkscape.org/namespaces/inkscape"
   xmlns:sodipodi="http://sodipodi.sourceforge.net/DTD/sodipodi-0.dtd"
   xmlns="http://www.w3.org/2000/svg"
   xmlns:svg="http://www.w3.org/2000/svg">
  <sodipodi:namedview
     id="namedview13"
     pagecolor="#ffffff"
     bordercolor="#666666"
     borderopacity="1.0"
     inkscape:pageshadow="2"
     inkscape:pageopacity="0.0"
     inkscape:pagecheckerboard="0"
     showgrid="true"
     inkscape:zoom="16"
     inkscape:cx="0.78125"
     inkscape:cy="8.3125"
     inkscape:current-layer="svg11"
     inkscape:showpageshadow="2"
     inkscape:deskcolor="#d1d1d1">
    <inkscape:grid
       type="xygrid"
       id="grid1116" />
  </sodipodi:namedview>
  <path
     d="M 3.2979594,19.51755 C 1.4897694,17.430806 0.49615848,14.761161 0.50001091,12 c 0,-6.3514498 5.14854729,-11.49999993 11.49998309,-11.49999993 2.4564,0 4.733398,0.77050003 6.600997,2.08150003 l -6.600997,3.6685 v -3.45 C 10.196335,2.7998851 8.4324766,3.3299201 6.9276565,4.324095 5.4228248,5.318385 4.2434428,6.7331152 3.5361473,8.3922201 2.8288631,10.05144 2.6248647,11.881894 2.9495326,13.656 c 0.3246563,1.77422 1.1636613,3.413833 2.4126757,4.715001 z M 20.70204,4.4824501 c 1.808144,2.08679 2.801858,4.7564 2.797949,7.5175499 0,6.35145 -5.148548,11.5 -11.499995,11.5 -2.456388,0 -4.7333866,-0.7705 -6.6009857,-2.0815 L 11.999994,17.750001 V 21.2 c 1.803659,1.5e-4 3.567529,-0.529862 5.072418,-1.524141 1.504774,-0.994267 2.684214,-2.40894 3.391463,-4.068101 0.70725,-1.659199 0.91126,-3.489652 0.586614,-5.263758 C 20.725845,8.5697801 19.886806,6.930225 18.63779,5.6290001 Z"
     fill="url(#paint0_linear)"
     id="path2"
     style="fill:url(#paint0_linear);stroke-width:1.15001" />
  <defs
     id="defs9">
    <linearGradient
       id="paint0_linear"
       x1="20.260872"
       y1="12.000007"
       x2="2.4347827"
       y2="12.000007"
       gradientUnits="userSpaceOnUse"
       gradientTransform="matrix(0,-1.1499999,1.1499994,0,-1.8,25.8)">
      <stop
         stop-color="#9900ff"
         id="stop4"
         style="stop-color:#006cff;stop-opacity:1;"
         offset="0" />
      <stop
         offset="1"
         stop-color="#00ddff"
         id="stop6"
         style="stop-color:#00f1fa;stop-opacity:1;" />
    </linearGradient>
  </defs>
</svg>
