<?xml version="1.0" encoding="UTF-8" standalone="no"?>
<svg
   width="32"
   height="32"
   viewBox="0 0 32 32"
   fill="none"
   version="1.1"
   id="svg11"
   sodipodi:docname="firefox-logo.svg"
   inkscape:version="1.3 (0e150ed6c4, 2023-07-21)"
   xmlns:inkscape="http://www.inkscape.org/namespaces/inkscape"
   xmlns:sodipodi="http://sodipodi.sourceforge.net/DTD/sodipodi-0.dtd"
   xmlns="http://www.w3.org/2000/svg"
   xmlns:svg="http://www.w3.org/2000/svg">
  <sodipodi:namedview
     id="namedview13"
     pagecolor="#ffffff"
     bordercolor="#666666"
     borderopacity="1.0"
     inkscape:showpageshadow="2"
     inkscape:pageopacity="0.0"
     inkscape:pagecheckerboard="0"
     inkscape:deskcolor="#d1d1d1"
     showgrid="false"
     inkscape:zoom="13.906434"
     inkscape:cx="22.831159"
     inkscape:cy="22.867114"
     inkscape:current-layer="svg11" />
  <path
     d="m 23.100676,1.6070865 c -0.171499,-0.37744 0.304087,-0.79301898 0.6249,-0.541386 2.656133,1.698516 4.460753,4.678086 4.855168,7.876872 0.333667,-0.903595 0.536332,-1.852936 0.892185,-2.746988 0.07008,-0.24591 0.466254,-0.308823 0.57331,-0.04767 1.257018,2.190355 1.942665,4.7143065 1.953758,7.2630485 0.0019,4.001367 -1.026709,8.09042 -3.375058,11.321622 -2.200795,3.141579 -5.640474,5.240426 -9.308525,5.959175 -3.686663,0.72051 -7.605502,0.21728 -10.9916347,-1.464086 -3.2773698,-1.669917 -6.0515273,-4.535229 -7.35657855,-8.097986 -0.6691165,-1.847232 -1.0267145,-3.82793 -0.9603561,-5.800969 -0.0055306,-1.570807 0.438703,-3.084406 0.8792512,-4.569428 C 1.1949168,9.9872425 0.68617705,9.2208985 0.68617705,8.4374055 0.39124865,5.7228155 2.2898385,3.0749405 4.7911988,2.3448345 c 0.2598907,-0.15442 0.672793,0.07624 0.6322423,0.39651 0.040551,0.701528 0.00921,1.404959 0.012907,2.10839 0.7354762,-0.1506 1.4948992,-0.122022 2.2266962,-0.257356 1.028559,-1.221944 2.5308347,-2.007356 4.1142327,-1.982564 0.359445,-0.02287 1.010122,-0.01907 0.997216,0.505167 -0.210131,1.349671 -0.705983,2.649776 -0.788935,4.020418 -0.101385,0.697708 0.464512,1.321076 1.100451,1.444981 0.589861,0.123906 1.227632,0.160126 1.730845,0.543288 1.275559,0.831158 1.308751,2.9986395 0.112442,3.9174835 -0.973251,0.674836 -2.199034,0.728205 -3.251556,1.218124 -0.355765,0.160142 -0.364974,0.611923 -0.427657,0.94934 1.14285,-0.165847 2.202749,-0.644321 3.279218,-1.046553 0.875564,-0.335516 1.920726,-0.09723 2.558497,0.613825 0.849751,0.905497 0.888488,2.491535 0.0074,3.389355 -0.693093,0.665398 -1.504144,1.189581 -2.352064,1.61657 1.270031,0.291761 2.683795,0.41748 3.867213,-0.251615 1.561282,-0.846406 2.375994,-2.651731 2.641519,-4.382575 0.156533,-1.340145 0.206363,-2.71459 -0.01479,-4.050915 -0.2083,-1.2657875 -0.899581,-2.3543005 -1.417425,-3.4961815 -0.112515,-0.181096 0.0092,-0.516613 0.252495,-0.472752 1.352982,0.175374 2.720576,0.539485 3.865259,1.340128 0.151251,-2.321884 -0.263589,-4.62852 -0.836722,-6.860816 z M 8.6510513,7.4270545 c -0.604598,-0.381261 -1.319808,-0.661489 -2.033152,-0.47085 -0.9437764,0.120085 -1.7326926,0.703431 -2.479227,1.265788 -0.322592,-0.611923 -0.6230334,-1.235291 -0.906906,-1.866283 -0.3870892,0.83496 -0.516119,1.805272 -0.2175088,2.693619 0.1032168,0.488017 0.4331688,0.9722135 0.2506819,1.4812015 -0.1640516,0.556652 -0.401827,1.088513 -0.5548209,1.65087 -1.0654288,3.644862 -0.42396,7.798676 1.7511282,10.881269 1.5796986,2.249393 3.9133096,3.837438 6.4128033,4.798118 3.419324,1.292587 7.28835,1.145738 10.663408,-0.226788 2.728149,-1.107529 4.973316,-3.307444 6.346546,-5.968683 1.600018,-2.952823 2.1198,-6.422382 1.82487,-9.767965 -0.667335,1.031323 -1.535574,1.908225 -2.488507,2.653597 -0.243339,0.244009 -0.685647,-0.05339 -0.652544,-0.371735 -0.07184,-1.654673 0.0019,-3.318889 -0.2083,-4.9659385 -0.07008,-0.367914 -0.06638,-0.781591 -0.298628,-1.092316 0.09033,1.788123 -0.394414,3.5324015 -0.978816,5.1966005 -0.149138,-0.0019 -0.447766,-0.0038 -0.597079,-0.0057 -0.405507,-0.644322 -0.654481,-1.376347 -0.997305,-2.055004 0.08487,1.553657 0.149314,3.128268 -0.13646,4.664757 -0.383321,2.012991 -1.336254,4.018517 -3.006351,5.204224 -1.397177,1.037098 -3.190705,1.336254 -4.871807,1.107529 -2.116102,-0.196327 -4.027602,-1.395416 -5.5132927,-2.90898 -0.0682,-0.606236 0.6912277,-0.535629 1.0691087,-0.678604 1.692142,-0.305142 3.330827,-1.008573 4.617445,-2.205655 -0.529026,-0.284049 -1.048825,0.184917 -1.555735,0.320215 -1.435932,0.613807 -2.993515,0.777735 -4.5271347,0.899757 -0.329934,0.07448 -0.532705,-0.312538 -0.488457,-0.604299 0.0092,-0.960715 -0.06821,-1.94057 0.127181,-2.887991 0.241473,-1.136177 1.1852317,-1.978762 2.2543407,-2.251365 0.739174,-0.308823 1.647911,-0.295476 2.252509,-0.87118 -1.124414,-0.184917 -2.326233,-0.478491 -3.069087,-1.4545265 -1.0617307,-1.109465 -1.0377667,-2.792733 -0.6506777,-4.197693 -0.591691,0.564277 -1.034087,1.265788 -1.338226,2.034033 z"
     fill="url(#paint0_linear)"
     id="path2"
     style="fill:url(#paint0_linear);stroke-width:0.176078" />
  <defs
     id="defs9">
    <linearGradient
       id="paint0_linear"
       x1="32.887497"
       y1="158.87761"
       x2="118.182"
       y2="45.976799"
       gradientUnits="userSpaceOnUse"
       gradientTransform="matrix(0.17607773,0,0,0.17607773,-0.73707855,-0.96771569)">
      <stop
         stop-color="#e5f230"
         id="stop4" />
      <stop
         offset="1"
         stop-color="#54d863"
         id="stop6" />
    </linearGradient>
  </defs>
</svg>
