<?xml version="1.0" encoding="UTF-8" standalone="no"?>
<svg
   width="32"
   height="32"
   viewBox="0 0 32 32"
   fill="none"
   version="1.1"
   id="svg3"
   sodipodi:docname="lightning.svg"
   inkscape:version="1.3.2 (091e20ef0f, 2023-11-25, custom)"
   xmlns:inkscape="http://www.inkscape.org/namespaces/inkscape"
   xmlns:sodipodi="http://sodipodi.sourceforge.net/DTD/sodipodi-0.dtd"
   xmlns="http://www.w3.org/2000/svg"
   xmlns:svg="http://www.w3.org/2000/svg">
  <sodipodi:namedview
     id="namedview3"
     pagecolor="#ffffff"
     bordercolor="#666666"
     borderopacity="1.0"
     inkscape:showpageshadow="2"
     inkscape:pageopacity="0.0"
     inkscape:pagecheckerboard="0"
     inkscape:deskcolor="#d1d1d1"
     inkscape:zoom="12.271249"
     inkscape:cx="-3.4226345"
     inkscape:cy="15.279618"
     inkscape:current-layer="svg3" />
  <path
     d="m 14.705372,31.999997 c -0.168581,-1.45e-4 -0.335999,-0.02967 -0.494543,-0.08727 -0.305744,-0.112 -0.565089,-0.323344 -0.736579,-0.600288 -0.17149,-0.276944 -0.244944,-0.603343 -0.208872,-0.926978 L 14.385373,20.07278 H 5.8182271 C 5.553981,20.073216 5.2946222,20.00165 5.0680051,19.865653 4.8413734,19.7298 4.6560507,19.534746 4.5319349,19.301438 4.4078191,19.06813 4.3495939,18.80544 4.3635138,18.541587 4.3774488,18.277734 4.4629898,18.022607 4.61096,17.803699 L 16.087183,0.64014324 c 0.181527,-0.2686096 0.447562,-0.4688705 0.755924,-0.5690155 0.308362,-0.10012898 0.641306,-0.0943996 0.945887,0.016291 0.292944,0.1087414 0.543125,0.308915 0.713306,0.5708919 0.170326,0.2619625 0.25178,0.57180836 0.232144,0.88364686 L 17.614449,11.927363 h 8.567233 c 0.26429,-4.07e-4 0.523634,0.07118 0.750251,0.207083 0.226617,0.135897 0.411926,0.330965 0.536143,0.564244 0.124072,0.233279 0.182254,0.496013 0.168436,0.759866 -0.01396,0.263853 -0.09949,0.518979 -0.247563,0.737887 L 15.912639,31.36 c -0.133381,0.197381 -0.313162,0.35898 -0.52378,0.470543 -0.210471,0.111709 -0.445234,0.169891 -0.683487,0.169454 z M 8.5382145,17.163702 h 7.4616965 c 0.203054,4.37e-4 0.403635,0.04349 0.589088,0.126109 0.185309,0.08262 0.351271,0.203199 0.487271,0.353889 0.137308,0.152727 0.240726,0.332799 0.303417,0.528289 0.06269,0.195635 0.0832,0.40218 0.06022,0.606251 l -0.654542,6.036336 6.676333,-9.978136 h -7.461784 c -0.205235,0.0013 -0.408434,-0.04102 -0.596215,-0.123781 -0.187781,-0.08291 -0.35578,-0.204653 -0.493234,-0.357089 -0.137309,-0.152581 -0.240872,-0.332362 -0.303853,-0.527852 -0.06284,-0.195345 -0.08378,-0.401744 -0.06124,-0.605816 l 0.654543,-6.0363345 z"
     fill="url(#paint0_linear_935_2)"
     id="path1"
     style="fill:url(#paint0_linear_935_2);stroke-width:1.45454" />
  <defs
     id="defs3">
    <linearGradient
       id="paint0_linear_935_2"
       x1="11.999561"
       y1="0.99999964"
       x2="11.999561"
       y2="23.000101"
       gradientUnits="userSpaceOnUse"
       gradientTransform="matrix(1.4545387,0,0,1.4545387,-1.4538265,-1.4545379)">
      <stop
         stop-color="#C8FF6F"
         id="stop1"
         offset="0"
         style="stop-color:#6033ff;stop-opacity:1;" />
      <stop
         offset="1"
         stop-color="#FF6060"
         id="stop3"
         style="stop-color:#c900ff;stop-opacity:1;" />
    </linearGradient>
  </defs>
</svg>
