<?xml version="1.0" encoding="UTF-8" standalone="no"?>
<svg
   width="24"
   height="24"
   viewBox="0 0 24 24"
   fill="none"
   version="1.1"
   id="svg11"
   sodipodi:docname="reload.svg"
   inkscape:version="1.2.1 (9c6d41e410, 2022-07-14)"
   xmlns:inkscape="http://www.inkscape.org/namespaces/inkscape"
   xmlns:sodipodi="http://sodipodi.sourceforge.net/DTD/sodipodi-0.dtd"
   xmlns="http://www.w3.org/2000/svg"
   xmlns:svg="http://www.w3.org/2000/svg">
  <sodipodi:namedview
     id="namedview13"
     pagecolor="#ffffff"
     bordercolor="#666666"
     borderopacity="1.0"
     inkscape:pageshadow="2"
     inkscape:pageopacity="0.0"
     inkscape:pagecheckerboard="0"
     showgrid="true"
     inkscape:zoom="26.583334"
     inkscape:cx="12.564263"
     inkscape:cy="11.849529"
     inkscape:current-layer="svg11"
     inkscape:showpageshadow="2"
     inkscape:deskcolor="#d1d1d1">
    <inkscape:grid
       type="xygrid"
       id="grid1116" />
  </sodipodi:namedview>
  <path
     d="M 2.9196212,19.754253 C 1.0328151,17.589002 -0.00399581,14.818919 2.4112271e-5,11.953878 2.4112271e-5,5.363474 5.3724189,0.02122514 12,0.02122514 c 2.563199,0 4.939196,0.79948779 6.887994,2.15981026 L 12,5.9875517 V 2.4077558 C 10.117923,2.4076365 8.277376,2.9576124 6.7071296,3.9891902 5.1368711,5.0208874 3.9062122,6.4888425 3.168165,8.2103663 2.4301297,9.9320095 2.2172619,11.831329 2.5560456,13.67218 c 0.3387717,1.84097 1.2142548,3.542268 2.5175736,4.892389 z M 21.080392,4.1535029 c 1.886758,2.1652992 2.923677,4.9353453 2.919598,7.8003751 0,6.590404 -5.372396,11.932653 -11.99999,11.932653 -2.5631851,0 -4.9391827,-0.799488 -6.8879809,-2.15981 L 12,17.920205 V 21.5 c 1.882079,1.56e-4 3.722638,-0.549796 5.292956,-1.581482 1.570198,-1.031673 2.800918,-2.499569 3.538916,-4.221151 0.738,-1.721621 0.95088,-3.62094 0.612119,-5.461791 C 21.105232,8.3946064 20.229714,6.693368 18.926393,5.3431884 Z"
     fill="url(#paint0_linear)"
     id="path2"
     style="fill:url(#paint0_linear);stroke-width:1.19663" />
  <defs
     id="defs9">
    <linearGradient
       id="paint0_linear"
       x1="18.665642"
       y1="11.999999"
       x2="2"
       y2="12.000006"
       gradientUnits="userSpaceOnUse"
       gradientTransform="matrix(0,-1.1932652,1.1999989,0,-2.3999857,26.273061)">
      <stop
         stop-color="#9900ff"
         id="stop4"
         style="stop-color:#9000ff;stop-opacity:1;"
         offset="0" />
      <stop
         offset="1"
         stop-color="#00ddff"
         id="stop6"
         style="stop-color:#00ddff;stop-opacity:1;" />
    </linearGradient>
  </defs>
</svg>
